<?xml version="1.0" standalone="no"?><!DOCTYPE svg PUBLIC "-//W3C//DTD SVG 1.1//EN" "http://www.w3.org/Graphics/SVG/1.1/DTD/svg11.dtd" ><svg xmlns="http://www.w3.org/2000/svg"><metadata></metadata><defs><font id="fonteditor" horiz-adv-x="256"><font-face font-family="iwOS" font-weight="400" font-stretch="normal" units-per-em="256" panose-1="2 1 6 9 6 1 1 1 1 1" ascent="220" descent="-36" x-height="1" bbox="0 -36 259 214" underline-thickness="0" underline-position="0" unicode-range="U+3002-ff0c" /><missing-glyph horiz-adv-x="256" d="M224 -13 L28 -13 L28 193 L224 193 L224 -13 ZM216 186 L35 186 L35 -6 L216 -6 L216 186 Z" /><glyph glyph-name="uni3002" unicode="&#x3002;" d="M91 39 Q95 28 92 17.5 Q89 7 81 1.5 Q73 -4 62 -4 Q51 -4 42 5 Q33 14 33 24.5 Q33 35 38 43 Q43 51 53.5 55 Q64 59 75.5 54.5 Q87 50 91 39 ZM73 11 Q82 17 81.5 27.5 Q81 38 71.5 43 Q62 48 53.5 42 Q45 36 45 26 Q45 16 54.5 10.5 Q64 5 73 11 Z" /><glyph glyph-name="uniFF08" unicode="&#xff08;" d="M217 204 L228 191 Q171 149 173 94 Q174 41 227 2 L216 -11 Q155 33 157 100 Q157 155 217 204 Z" /><glyph glyph-name="uniFF09" unicode="&#xff09;" d="M40 204 Q100 155 100 100 Q102 33 41 -11 L30 2 Q83 41 84 94 Q86 149 29 191 L40 204 Z" /><glyph glyph-name="uniFF0C" unicode="&#xff0c;" d="M55 0 Q46 0 42 3 Q38 6 36.5 11 Q35 16 36 20.5 Q37 25 43 29.5 Q49 34 58 32 Q67 30 70 22 Q73 14 69 1.5 Q65 -11 54.5 -22.5 Q44 -34 36 -35 Q28 -36 34 -31.5 Q40 -27 45.5 -20 Q51 -13 55 0 Z" /><glyph glyph-name="uni4E00" unicode="&#x4e00;" d="M27 83 Q14 93 24.5 92 Q35 91 64.5 93.5 Q94 96 127 101 Q160 106 186 110.5 Q212 115 227 107.5 Q242 100 240.5 95 Q239 90 226.5 91 Q214 92 189 92 Q164 92 135.5 89.5 Q107 87 87.5 83.5 Q68 80 54.5 77 Q41 74 27 83 Z" /><glyph glyph-name="uni4E03" unicode="&#x4e03;" d="M114 107 Q140 117 162 125.5 Q184 134 195 139 Q206 144 217 137 Q228 130 218.5 127 Q209 124 182 116.5 Q155 109 114 94 Q113 55 116 45.5 Q119 36 128 30.5 Q137 25 156.5 25.5 Q176 26 189 29.5 Q202 33 208.5 38.5 Q215 44 219.5 62.5 Q224 81 223.5 60.5 Q223 40 227 32.5 Q231 25 218.5 19.5 Q206 14 193.5 12 Q181 10 163.5 9 Q146 8 129 12 Q112 16 106.5 29 Q101 42 101 58 L101 90 Q58 72 49.5 69 Q41 66 28 71.5 Q15 77 29.5 80 Q44 83 59.5 88.5 Q75 94 101 103 Q101 125 100 147.5 Q99 170 92.5 179.5 Q86 189 95 187.5 Q104 186 113.5 181 Q123 176 119.5 170 Q116 164 115 139 Q114 114 114 107 Z" /><glyph glyph-name="uni4E09" unicode="&#x4e09;" d="M18 14 Q6 21 13 22 Q20 23 46.5 25.5 Q73 28 91 30 Q109 32 128.5 34 Q148 36 170 39 Q192 42 209.5 43 Q227 44 237 34.5 Q247 25 243 22 Q239 19 221.5 22 Q204 25 181 25 Q159 25 131.5 23 Q104 21 76 16.5 Q48 12 39 9.5 Q30 7 18 14 ZM107 147 Q86 145 71.5 152.5 Q57 160 75.5 161 Q94 162 118 165.5 Q142 169 153.5 171.5 Q165 174 173.5 173 Q182 172 188.5 167 Q195 162 184 159 Q173 156 150.5 153 Q128 150 107 147 ZM107 85 Q91 83 76.5 89 Q62 95 76 95.5 Q90 96 108.5 99 Q127 102 138.5 104 Q150 106 161 106 Q172 106 178.5 100.5 Q185 95 173 92.5 Q161 90 153 90 Q145 90 134.5 88.5 Q124 87 107 85 Z" /><glyph glyph-name="uni4E0A" unicode="&#x4e0a;" d="M134 115 Q149 118 158.5 120.5 Q168 123 178 126 Q188 129 198 125 Q208 121 196 116 Q184 111 165.5 109 Q147 107 134 107 Q133 86 132 27 Q162 30 179 31.5 Q196 33 205.5 34.5 Q215 36 225 33.5 Q235 31 241.5 22.5 Q248 14 221.5 16 Q195 18 172.5 17.5 Q150 17 122 14.5 Q94 12 70.5 9 Q47 6 40 4.5 Q33 3 22.5 11 Q12 19 23 19 Q34 19 60 21 Q86 23 120 26 L120 134 Q120 178 113 189 Q106 200 124 193 Q142 186 139.5 179.5 Q137 173 135.5 155.5 Q134 138 134 115 Z" /><glyph glyph-name="uni4E0B" unicode="&#x4e0b;" d="M130 161 Q139 149 136.5 145.5 Q134 142 134 111 Q159 111 174.5 106 Q190 101 192.5 87 Q195 73 171.5 85.5 Q148 98 134 106 Q135 28 132 3.5 Q129 -21 125 -21 Q122 -21 117 -10.5 Q112 0 114 8 Q116 16 118 26 Q120 36 121 93 Q122 150 113 159 Q62 151 50 148.5 Q38 146 28 154.5 Q18 163 28.5 162.5 Q39 162 68.5 165 Q98 168 128.5 172.5 Q159 177 188 181.5 Q217 186 227 178 Q237 170 234 167 Q231 164 213.5 165 Q196 166 180 165 Q164 164 130 161 Z" /><glyph glyph-name="uni4E0D" unicode="&#x4e0d;" d="M146 163 Q159 151 154 146.5 Q149 142 131 117 Q132 71 132.5 47.5 Q133 24 130.5 3 Q128 -18 120 -3.5 Q112 11 115.5 23 Q119 35 119 51 L119 100 Q93 67 70.5 49.5 Q48 32 30.5 25 Q13 18 32 31.5 Q51 45 73.5 68 Q96 91 114 119 Q113 130 109.5 136 Q106 142 112.5 140.5 Q119 139 126 134 Q139 156 137 163 Q77 154 64 151 Q51 148 40.5 156 Q30 164 42 164.5 Q54 165 65.5 166 Q77 167 124.5 172.5 Q172 178 185.5 181.5 Q199 185 208 181.5 Q217 178 222 172.5 Q227 167 212 167 Q198 167 183 166.5 Q168 166 146 163 ZM161 88 Q147 102 175.5 90.5 Q204 79 217 68.5 Q230 58 229.5 43 Q229 28 218 37.5 Q207 47 191 61 Q175 75 161 88 Z" /><glyph glyph-name="uni4E49" unicode="&#x4e49;" d="M130 64 Q156 37 170 29 Q184 21 196.5 16 Q209 11 227 7 Q245 3 228 -0.5 Q211 -4 190.5 -4.5 Q170 -5 162 3.5 Q154 12 144 24.5 Q134 37 121 53 Q104 35 83 24 Q62 13 41.5 10 Q21 7 39 14 Q57 21 77.5 34 Q98 47 110 65 Q99 80 87.5 93.5 Q76 107 69.5 112.5 Q63 118 52.5 122 Q42 126 57 127.5 Q72 129 78.5 121 Q85 113 94 102 Q103 91 118 76 Q129 95 137.5 132.5 Q146 170 142 178.5 Q138 187 146 184.5 Q154 182 163 176 Q172 170 166.5 164 Q161 158 157 141.5 Q153 125 146.5 104.5 Q140 84 130 64 ZM101 139 Q91 152 87 160 Q83 168 97.5 164.5 Q112 161 115.5 150.5 Q119 140 115 133.5 Q111 127 101 139 Z" /><glyph glyph-name="uni4E4B" unicode="&#x4e4b;" d="M65 44 Q126 24 145.5 20 Q165 16 184 14 Q203 12 223 14 Q243 16 243.5 12.5 Q244 9 224.5 0.5 Q205 -8 191.5 -10.5 Q178 -13 166 -6.5 Q154 0 117 14.5 Q80 29 66.5 33 Q53 37 45.5 35 Q38 33 32 29 Q26 25 18.5 34 Q11 43 20.5 44.5 Q30 46 40 46.5 Q50 47 60.5 52 Q71 57 101 84 Q131 111 153 136 Q123 129 97.5 121 Q72 113 64 109.5 Q56 106 44 114.5 Q32 123 38 123 Q45 123 61.5 125 Q78 127 102 133.5 Q126 140 141.5 144.5 Q157 149 163.5 153.5 Q170 158 184 148 Q198 138 186 134 Q174 130 161 119.5 Q148 109 123 87.5 Q98 66 65 44 ZM102 174 Q94 183 92 190 Q90 197 105.5 192 Q121 187 126 177.5 Q131 168 128 161 Q125 154 117.5 159.5 Q110 165 102 174 Z" /><glyph glyph-name="uni4E5D" unicode="&#x4e5d;" d="M111 132 Q137 140 143 145.5 Q149 151 156.5 147.5 Q164 144 171 138.5 Q178 133 169.5 127 Q161 121 155.5 104.5 Q150 88 148.5 62 Q147 36 158.5 28 Q170 20 189.5 20.5 Q209 21 218 26 Q227 31 230.5 53.5 Q234 76 234.5 54.5 Q235 33 239 22 Q243 11 231.5 7.5 Q220 4 193.5 3.5 Q167 3 154.5 11 Q142 19 139 33.5 Q136 48 139 73 Q142 98 145 115.5 Q148 133 144.5 133.5 Q141 134 109 123 Q103 95 92 72 Q81 49 65 33 Q49 17 30.5 9.5 Q12 2 33.5 18 Q55 34 70 59 Q85 84 93 117 Q70 109 61 105.5 Q52 102 40.5 108.5 Q29 115 43.5 116.5 Q58 118 67 120 Q76 122 96 128 Q104 174 98 184 Q92 194 101.5 192.5 Q111 191 119.5 186.5 Q128 182 123 176.5 Q118 171 111 132 Z" /><glyph glyph-name="uni4E5F" unicode="&#x4e5f;" d="M123 126 Q151 146 156 152 Q161 158 168.5 156 Q176 154 182.5 150.5 Q189 147 183.5 141 Q178 135 176 121.5 Q174 108 172 92.5 Q170 77 161 67.5 Q152 58 149.5 66.5 Q147 75 137 82 Q127 89 135 87 Q143 85 149 85.5 Q155 86 158 99 Q161 112 161.5 127 Q162 142 152 135.5 Q142 129 123 116 Q123 86 122 73 Q121 60 117 51 Q113 42 111.5 55.5 Q110 69 109 106 Q94 97 79 86 Q79 63 82 49 Q85 35 93.5 28.5 Q102 22 117.5 18.5 Q133 15 173 18 Q213 21 219 30 Q225 39 228 58 Q231 77 232 55.5 Q233 34 239.5 25.5 Q246 17 235 12 Q224 7 207.5 3.5 Q191 0 156 0 Q121 0 101.5 6.5 Q82 13 74.5 27.5 Q67 42 67 79 Q45 64 40.5 60 Q36 56 24.5 60 Q13 64 23 67 Q33 70 67 90 Q66 121 60.5 130 Q55 139 63 137.5 Q71 136 77.5 133.5 Q84 131 81.5 125 Q79 119 79 97 Q94 106 109 118 Q109 164 107.5 177.5 Q106 191 101.5 197.5 Q97 204 105 202.5 Q113 201 121 198 Q129 195 125 188 Q121 181 123 126 Z" /><glyph glyph-name="uni4E8C" unicode="&#x4e8c;" d="M27 31 Q11 41 29 40 Q47 39 111 46 Q175 53 199.5 57.5 Q224 62 235.5 50.5 Q247 39 240.5 37.5 Q234 36 213 38.5 Q192 41 132 35 Q72 29 57.5 25 Q43 21 27 31 ZM93 148 Q108 149 133 153 Q158 157 166.5 159.5 Q175 162 184 157.5 Q193 153 190 149 Q187 145 171.5 144 Q156 143 133 140 Q110 137 97 133 Q84 129 71.5 138.5 Q59 148 69 147.5 Q79 147 93 148 Z" /><glyph glyph-name="uni4E8E" unicode="&#x4e8e;" d="M124 165 Q142 157 138.5 150.5 Q135 144 136 121 Q192 128 202 129.5 Q212 131 223.5 126 Q235 121 235 115 Q235 109 207 111.5 Q179 114 137 110 Q138 77 139 55 Q140 33 139 17 Q138 1 128.5 -12 Q119 -25 113 -15.5 Q107 -6 91 3 Q75 12 97.5 8.5 Q120 5 122 17.5 Q124 30 124.5 51 Q125 72 123 109 Q85 102 70.5 99 Q56 96 48.5 94.5 Q41 93 31.5 100 Q22 107 29 107 Q37 107 62 110 Q87 113 122 119 Q122 144 116 164 Q105 162 94.5 160 Q84 158 75 164 Q66 170 79.5 171 Q93 172 123 177.5 Q153 183 160.5 186 Q168 189 178.5 182.5 Q189 176 174 173 Q159 170 124 165 Z" /><glyph glyph-name="uni4E91" unicode="&#x4e91;" d="M118 95 Q123 92 128 88.5 Q133 85 127.5 81 Q122 77 106.5 60 Q91 43 84 35 Q77 27 87 28 Q97 29 113.5 31.5 Q130 34 165 39 Q155 54 152 61.5 Q149 69 172.5 53.5 Q196 38 200 24.5 Q204 11 200.5 4 Q197 -3 190 5 Q183 13 171 33 Q116 22 93 15 Q70 8 62.5 3.5 Q55 -1 51.5 9 Q48 19 58.5 25.5 Q69 32 88.5 58.5 Q108 85 107 94 Q62 87 50 84 Q38 81 28 87.5 Q18 94 27.5 94.5 Q37 95 67 99 Q97 103 150 110.5 Q203 118 213.5 119 Q224 120 232 115 Q240 110 238.5 105.5 Q237 101 226 102 Q215 103 190 103 Q166 103 118 95 ZM143 154 Q112 149 102 149 Q92 149 80.5 153 Q69 157 91.5 160.5 Q114 164 144.5 172.5 Q175 181 179.5 172 Q184 163 143 154 Z" /><glyph glyph-name="uni4E94" unicode="&#x4e94;" d="M83 24 Q88 36 103 86 L80 81 Q73 80 64.5 87 Q56 94 68 93.5 Q80 93 106 97 Q117 143 114 153 Q97 150 90.5 149.5 Q84 149 75.5 156 Q67 163 76 163 Q85 163 102 165 Q119 167 139.5 170.5 Q160 174 172.5 177 Q185 180 195 173.5 Q205 167 191.5 164 Q178 161 159.5 159 Q141 157 126 154 Q140 146 135.5 139 Q131 132 122 99 Q149 104 155.5 107.5 Q162 111 169 108.5 Q176 106 183.5 99.5 Q191 93 185 87.5 Q179 82 173 64 Q167 46 163 30 Q188 32 204.5 34 Q221 36 231.5 32 Q242 28 247 19.5 Q252 11 227.5 14.5 Q203 18 149.5 15.5 Q96 13 77 9.5 Q58 6 45 3.5 Q32 1 22 9 Q12 17 20 17 Q29 17 41.5 18 Q54 19 83 24 ZM98 25 Q111 26 149 29 Q159 75 159 84 Q159 94 149 93 Q139 92 120 89 Q113 69 98 25 Z" /><glyph glyph-name="uni4EBA" unicode="&#x4eba;" d="M116 119 Q133 98 159 72.5 Q185 47 201.5 37.5 Q218 28 238 21.5 Q258 15 237 12.5 Q216 10 201.5 11.5 Q187 13 179.5 23.5 Q172 34 151 61.5 Q130 89 113 114 Q95 83 80 62.5 Q65 42 50.5 30 Q36 18 20 12 Q4 6 22 19.5 Q40 33 58 55 Q76 77 90 104.5 Q104 132 110 149.5 Q116 167 112.5 178 Q109 189 120 184 Q131 179 137 174 Q143 169 138 163.5 Q133 158 127.5 145.5 Q122 133 116 119 Z" /><glyph glyph-name="uni4EC0" unicode="&#x4ec0;" d="M172 114 Q193 117 203 119 Q213 121 221 122.5 Q229 124 236.5 116.5 Q244 109 228 109 Q212 109 172 105 Q172 39 170 7.5 Q168 -24 163 -24.5 Q158 -25 158 4 L158 102 Q129 96 120.5 94 Q112 92 101 99 Q90 106 104 106 Q118 106 158 113 Q158 148 157.5 163.5 Q157 179 152.5 188.5 Q148 198 164.5 193 Q181 188 176.5 179 Q172 170 172 114 ZM73 122 Q83 111 82 94.5 Q81 78 81 40 Q81 2 76.5 -4.5 Q72 -11 67.5 1 Q63 13 66 20 Q69 27 71 67.5 Q73 108 67 115 Q44 89 26.5 78 Q9 67 26 84 Q43 101 61 129.5 Q79 158 83 169.5 Q87 181 86 188.5 Q85 196 98.5 187.5 Q112 179 107.5 175 Q103 171 92.5 154 Q82 137 73 122 Z" /><glyph glyph-name="uni4EE5" unicode="&#x4ee5;" d="M181 70 Q211 53 220.5 45 Q230 37 231.5 27 Q233 17 229.5 11 Q226 5 219 15 Q212 25 205.5 34.5 Q199 44 179 66 Q159 38 140.5 24.5 Q122 11 107.5 7.5 Q93 4 93.5 6 Q94 8 111.5 18 Q129 28 148 49.5 Q167 71 177.5 95 Q188 119 191.5 139.5 Q195 160 192 169 Q189 178 192 178 Q196 178 206 172.5 Q216 167 215.5 163.5 Q215 160 212 154 Q209 148 202 120.5 Q195 93 181 70 ZM67 145 Q75 141 72 134 Q69 127 68.5 101 Q68 75 68 68 Q68 61 77 68 Q86 75 106.5 93 Q127 111 129.5 109.5 Q132 108 117.5 92 Q103 76 89 61.5 Q75 47 67.5 34.5 Q60 22 56 22 Q52 22 47.5 29 Q43 36 48 43 Q53 50 56 64.5 Q59 79 57 107.5 Q55 136 50 143.5 Q45 151 52.5 150 Q60 149 67 145 ZM122 147 Q114 154 111 159 Q108 164 123 162 Q138 160 144 153 Q150 146 148.5 137 Q147 128 138.5 134 Q130 140 122 147 Z" /><glyph glyph-name="uni4F1A" unicode="&#x4f1a;" d="M109 63 Q124 50 116.5 45 Q109 40 101 32 Q93 24 85.5 16 Q78 8 87.5 9 Q97 10 114 11.5 Q131 13 156 15 Q146 33 141.5 40.5 Q137 48 145 45 Q153 42 165.5 32.5 Q178 23 181 10 Q184 -3 181 -10 Q178 -17 171 -7.5 Q164 2 159 9 Q120 3 100 -1.5 Q80 -6 70 -10.5 Q60 -15 58.5 -10 Q57 -5 57.5 0.5 Q58 6 63.5 9 Q69 12 84.5 30.5 Q100 49 100 61 Q82 58 72 56 Q62 54 52 61 Q42 68 54 68 Q67 68 92 71 Q117 74 140.5 78.5 Q164 83 172 84 Q180 85 187 79 Q194 73 185 71.5 Q176 70 161 68.5 Q146 67 109 63 ZM126 185 Q144 166 164 146 Q184 126 201 116 Q218 106 235.5 100 Q253 94 241 92 Q229 90 211 90 Q194 90 185.5 101 Q177 112 161.5 130.5 Q146 149 123 178 Q107 153 93 135.5 Q79 118 62 102.5 Q45 87 23.5 77.5 Q2 68 19 80.5 Q36 93 54 110 Q72 127 86 147 Q100 167 106.5 181 Q113 195 111.5 204 Q110 213 125 203 Q133 197 131 193.5 Q129 190 126 185 ZM115 114 Q128 117 137 119.5 Q146 122 152.5 115.5 Q159 109 132.5 104 Q106 99 99 99.5 Q92 100 86.5 103.5 Q81 107 91.5 109 Q102 111 115 114 Z" /><glyph glyph-name="uni4F20" unicode="&#x4f20;" d="M169 152 Q185 155 193.5 156 Q202 157 209 151.5 Q216 146 201 143.5 Q186 141 165 138 Q162 125 158 110 Q198 115 211.5 118 Q225 121 234.5 114 Q244 107 229.5 106 Q215 105 197 103.5 Q179 102 155 98 Q150 78 148.5 71.5 Q147 65 151 65.5 Q155 66 167.5 69 Q180 72 184.5 76.5 Q189 81 196 76.5 Q203 72 208.5 66.5 Q214 61 205.5 57 Q197 53 171 14 Q180 7 184 1 Q188 -5 185 -13.5 Q182 -22 172.5 -14.5 Q163 -7 153 1.5 Q143 10 134.5 19 Q126 28 134 27.5 Q142 27 164 18 Q178 46 180.5 55 Q183 64 177 63 Q171 62 159.5 58.5 Q148 55 139.5 47.5 Q131 40 126.5 48 Q122 56 128.5 61 Q135 66 143 97 Q121 93 111 90.5 Q101 88 91 94.5 Q81 101 94 100.5 Q107 100 146 108 Q149 119 152 136 Q142 134 132 134 Q123 134 115.5 138 Q108 142 120.5 143.5 Q133 145 155 150 Q157 163 157.5 176 Q158 189 155.5 196.5 Q153 204 161 202 Q169 200 176 195.5 Q183 191 179 184.5 Q175 178 169 152 ZM67 120 Q80 107 78.5 94.5 Q77 82 77 43 Q75 2 71.5 -5 Q68 -12 62.5 0.5 Q57 13 60 22.5 Q63 32 64.5 49.5 Q66 67 66.5 87 Q67 107 63 113 Q53 101 43 90.5 Q33 80 20 71 Q7 62 25 82 Q43 102 56 125 Q69 148 74.5 162.5 Q80 177 78.5 185 Q77 193 84.5 190 Q92 187 98 182 Q104 177 100 174 Q96 171 88 156.5 Q80 142 67 120 Z" /><glyph glyph-name="uni4F4D" unicode="&#x4f4d;" d="M60 107 Q75 96 73.5 84 Q72 72 71.5 42.5 Q71 13 67.5 -2 Q64 -17 57.5 -4.5 Q51 8 54.5 18 Q58 28 59 42.5 Q60 57 60 76 Q60 95 57 101 Q46 88 36 78.5 Q26 69 15.5 64 Q5 59 18 72.5 Q31 86 44 106 Q57 126 67 152 Q77 178 75 186 Q73 194 79.5 191.5 Q86 189 92.5 183.5 Q99 178 95.5 175 Q92 172 84.5 156 Q77 140 60 107 ZM155 30 Q195 35 211 38 Q227 41 235.5 33 Q244 25 241.5 23.5 Q239 22 220 22 Q202 22 174 19.5 Q146 17 123 12 Q100 7 92 8 Q84 9 79 14 Q74 19 87.5 19.5 Q101 20 147 29 Q154 42 162.5 65 Q171 88 168.5 96 Q166 104 173.5 102 Q181 100 189 95 Q197 90 191.5 86 Q186 82 175.5 64 Q165 46 155 30 ZM141 122 Q165 128 178.5 132 Q192 136 200 131 Q208 126 199 122.5 Q190 119 166.5 114 Q143 109 131 108 Q119 107 112.5 110.5 Q106 114 112 115 Q118 116 141 122 ZM148 181 Q160 179 166 171 Q172 163 168 156 Q164 149 151.5 158 Q139 167 130.5 175.5 Q122 184 129 184 Q136 184 148 181 ZM115 65 Q112 75 113 78.5 Q114 82 123 76.5 Q132 71 134.5 63 Q137 55 134 47 Q131 39 125 47.5 Q119 56 115 65 Z" /><glyph glyph-name="uni4F55" unicode="&#x4f55;" d="M190 150 Q202 143 199 134 Q196 125 196.5 95.5 Q197 66 199 43.5 Q201 21 198 10 Q195 -1 188 -10.5 Q181 -20 177.5 -10.5 Q174 -1 161 9 Q148 19 160 16 Q172 13 177.5 14 Q183 15 184 24.5 Q185 34 185 55 Q185 76 184 108.5 Q183 141 177 148 Q133 144 119 140.5 Q105 137 95 144 Q85 151 99 151 Q114 151 138.5 154 Q163 157 187 161 Q211 165 220.5 168 Q230 171 239.5 163 Q249 155 238 154 Q227 153 219 152.5 Q211 152 190 150 ZM65 133 Q76 125 74.5 107 Q73 89 73 56 Q73 23 70 9 Q67 -5 61 6.5 Q55 18 57.5 30 Q60 42 61 59 Q62 76 63.5 96 Q65 116 60 126 Q41 100 23.5 88.5 Q6 77 17.5 90 Q29 103 41 119 Q53 135 65.5 161.5 Q78 188 75.5 197 Q73 206 80.5 202.5 Q88 199 94.5 193 Q101 187 97 183.5 Q93 180 83 164 Q73 148 65 133 ZM156 83 Q166 75 152.5 73.5 Q139 72 119 69 Q115 54 111.5 62 Q108 70 106 86 Q104 102 99 109.5 Q94 117 100.5 116 Q107 115 110.5 114 Q114 113 120.5 114 Q127 115 133 117 Q139 119 143.5 122 Q148 125 155 122 Q162 119 167 115 Q172 111 166.5 106 Q161 101 156 83 ZM118 76 Q131 78 144 81 Q149 107 146.5 109.5 Q144 112 137.5 110.5 Q131 109 116 106 Q117 93 118 76 Z" /><glyph glyph-name="uni4F5B" unicode="&#x4f5b;" d="M158 160 Q158 192 152.5 200.5 Q147 209 155 207 Q163 205 169.5 202 Q176 199 172.5 194.5 Q169 190 170 163 Q180 165 187.5 168.5 Q195 172 200 170 Q205 168 211.5 163 Q218 158 212.5 154.5 Q207 151 199 134 Q210 126 197 124.5 Q184 123 170 120 L170 93 Q199 99 206 101.5 Q213 104 220.5 100.5 Q228 97 233 92 Q238 87 234.5 83.5 Q231 80 228 69.5 Q225 59 222.5 47 Q220 35 210.5 26.5 Q201 18 199.5 26 Q198 34 188.5 42 Q179 50 188.5 47.5 Q198 45 203 46 Q208 47 210.5 56.5 Q213 66 214 78.5 Q215 91 206 91 Q198 91 170 86 L170 27 Q170 9 167.5 -6 Q165 -21 161.5 -21.5 Q158 -22 158 5 L158 84 L139 81 Q137 47 127.5 28.5 Q118 10 102.5 2 Q87 -6 98.5 5.5 Q110 17 118 35 Q126 53 127 77 Q108 72 101 63.5 Q94 55 92 64 Q90 73 94 78.5 Q98 84 98.5 95 Q99 106 94 112.5 Q89 119 94.5 118 Q100 117 103 116 Q106 115 128 120 L128 144 Q125 144 118.5 142.5 Q112 141 106 145.5 Q100 150 104 150 Q109 150 128 153 Q127 176 121.5 184.5 Q116 193 130 189 Q144 184 141.5 179 Q139 174 139 155 L158 160 ZM67 134 Q80 124 77.5 109.5 Q75 95 75 66 Q75 38 71.5 16 Q68 -6 61.5 7.5 Q55 21 58.5 31 Q62 41 63 53.5 Q64 66 65 92 Q66 118 63 127 Q53 116 41.5 105.5 Q30 95 17 88 Q4 81 20.5 96 Q37 111 52.5 134.5 Q68 158 74 172 Q80 186 78.5 195.5 Q77 205 84.5 202.5 Q92 200 98.5 194 Q105 188 101.5 184.5 Q98 181 86.5 163.5 Q75 146 67 134 ZM107 81 Q116 83 128 86 L128 113 L107 109 L107 81 ZM170 128 Q177 129 189 133 Q192 144 192 151 Q192 159 185 157.5 Q178 156 170 154 L170 128 ZM139 88 L158 91 L158 119 L139 115 L139 88 ZM158 126 L158 151 L139 147 L139 122 L158 126 Z" /><glyph glyph-name="uni4F9D" unicode="&#x4f9d;" d="M171 80 Q189 110 187 118.5 Q185 127 192.5 124.5 Q200 122 206.5 116 Q213 110 205.5 105.5 Q198 101 175 75 Q184 64 198 51.5 Q212 39 235.5 32.5 Q259 26 239.5 23.5 Q220 21 208 22 Q196 23 183 42 L160 77 Q150 92 136 105 Q127 93 122 87 Q128 84 128 76 Q128 68 127.5 43.5 Q127 19 130 21 L151 33 Q169 43 152.5 27 Q136 11 129.5 1.5 Q123 -8 120 -11.5 Q117 -15 111.5 -6 Q106 3 109 8.5 Q112 14 115.5 28 Q119 42 118 59 Q117 76 114 78 Q109 72 99 64 Q89 56 77.5 51.5 Q66 47 79.5 58 Q93 69 111.5 94 Q130 119 135 134 Q121 130 110.5 127.5 Q100 125 90 130.5 Q80 136 94.5 137.5 Q109 139 139.5 146.5 Q170 154 183 159 Q196 164 204 157 Q212 150 195 146 Q178 142 148 137 Q158 130 155 127 L140 112 Q148 107 155.5 98.5 Q163 90 171 80 ZM57 123 Q66 118 68.5 113.5 Q71 109 69.5 99 Q68 89 68 72 Q68 55 67 26 Q66 -3 62 -7.5 Q58 -12 52 -1.5 Q46 9 49.5 20 Q53 31 55 53.5 Q57 76 57.5 93.5 Q58 111 54 117 Q36 94 18 82.5 Q0 71 14 87 Q28 103 38 117.5 Q48 132 55 145.5 Q62 159 65.5 168 Q69 177 68.5 186 Q68 195 74.5 192 Q81 189 88 182 Q95 175 91 172.5 Q87 170 78 154 Q69 138 57 123 ZM148 198 Q160 196 164.5 187 Q169 178 166 172 Q163 166 152.5 173.5 Q142 181 133.5 190 Q125 199 130.5 199.5 Q136 200 148 198 Z" /><glyph glyph-name="uni5048" unicode="&#x5048;" d="M182 131 Q153 127 138 125 Q148 118 145 115 Q142 112 132 104 Q140 104 168.5 108.5 Q197 113 203.5 116.5 Q210 120 217 117 Q224 114 229.5 110.5 Q235 107 232 101 Q229 95 229 78 Q229 61 225.5 39 Q222 17 214.5 4.5 Q207 -8 197 -15 Q187 -22 184 -13 Q181 -4 172 5.5 Q163 15 172 12 Q181 9 189 8 Q197 7 203 21 Q209 35 211.5 55 Q214 75 213.5 87 Q213 99 209.5 103 Q206 107 193 105 Q180 103 162 100 Q171 94 167 91 Q163 88 159 82 Q171 81 177.5 76.5 Q184 72 184 65 Q184 58 174 63 Q164 68 155 77 Q143 62 131.5 56 Q120 50 128 58.5 Q136 67 143.5 79.5 Q151 92 152 98 Q146 97 139 95.5 Q132 94 127 99 Q118 91 109.5 87 Q101 83 95.5 82 Q90 81 100.5 89 Q111 97 120.5 109 Q130 121 127 131 L121 157 Q117 173 112.5 179.5 Q108 186 114 186 Q120 186 124.5 183.5 Q129 181 154.5 185.5 Q180 190 185 192.5 Q190 195 195 194.5 Q200 194 209.5 187 Q219 180 213.5 176 Q208 172 202.5 156.5 Q197 141 191 131.5 Q185 122 182 131 ZM62 121 Q75 113 73.5 101 Q72 89 72 67 L72 26 Q72 7 68.5 -3.5 Q65 -14 59.5 -2.5 Q54 9 57 16 Q60 23 61.5 68.5 Q63 114 57 115 Q49 103 37.5 92 Q26 81 18.5 76.5 Q11 72 19 81.5 Q27 91 36.5 104 Q46 117 56.5 138.5 Q67 160 69.5 173 Q72 186 70 192 Q68 198 76 195 Q84 192 90 187 Q96 182 92.5 179 Q89 176 82 160 Q75 144 62 121 ZM136 133 Q149 134 183 139 Q188 155 189 167.5 Q190 180 186.5 181 Q183 182 164 179.5 Q145 177 131 175 Q132 165 133 157 Q148 161 158.5 163.5 Q169 166 172.5 161.5 Q176 157 162 153 Q148 149 134 151 L136 133 ZM117 39 Q125 40 143 43 Q161 46 172 47.5 Q183 49 188 42 Q193 35 176 35.5 Q159 36 138 33 Q117 30 111 25 Q105 20 102 27.5 Q99 35 102.5 39 Q106 43 107 55 Q108 67 103.5 75.5 Q99 84 111.5 79.5 Q124 75 121.5 69.5 Q119 64 117 39 Z" /><glyph glyph-name="uni5168" unicode="&#x5168;" d="M124 87 Q133 80 131 76.5 Q129 73 128 62 Q136 64 147 66 Q158 68 163 63.5 Q168 59 159 55.5 Q150 52 128 49 Q127 29 127 15 Q168 18 182.5 19 Q197 20 205 14 Q213 8 212 4 Q211 0 194.5 3 Q178 6 151.5 5.5 Q125 5 100 1.5 Q75 -2 64.5 -5 Q54 -8 43.5 -1 Q33 6 41 6 Q50 6 71 8.5 Q92 11 114 14 L114 49 Q98 46 91.5 45.5 Q85 45 78.5 50 Q72 55 82.5 56 Q93 57 114 60 Q114 77 111 86 L96 86 Q88 86 83 88.5 Q78 91 82 92 Q86 93 99.5 95.5 Q113 98 124.5 101 Q136 104 145.5 104.5 Q155 105 158.5 101 Q162 97 151 93.5 Q140 90 124 87 ZM125 167 Q132 158 158 138 Q184 118 199.5 109.5 Q215 101 227 97 Q239 93 243 91 Q247 89 228 87.5 Q209 86 198.5 87.5 Q188 89 179.5 96.5 Q171 104 158.5 119.5 Q146 135 122 161 Q111 143 98.5 125.5 Q86 108 68.5 93 Q51 78 33 70.5 Q15 63 34 77.5 Q53 92 67.5 108.5 Q82 125 90.5 138 Q99 151 105.5 166 Q112 181 110 190 Q108 199 117 196 Q126 193 131.5 188 Q137 183 133.5 179 Q130 175 125 167 Z" /><glyph glyph-name="uni516B" unicode="&#x516b;" d="M116 161 Q125 159 127 153 Q129 147 144.5 123 Q160 99 179 77 Q198 55 215.5 45 Q233 35 240.5 31.5 Q248 28 242 27 Q236 26 221 26 Q206 26 195.5 28.5 Q185 31 176.5 46 Q168 61 149.5 92 Q131 123 121 136 Q111 149 103.5 155.5 Q96 162 102 162.5 Q108 163 116 161 ZM77 105 Q75 114 83.5 110.5 Q92 107 97.5 100.5 Q103 94 97.5 89.5 Q92 85 81.5 72 Q71 59 56 44.5 Q41 30 27 22 Q13 14 20.5 21.5 Q28 29 39.5 42 Q51 55 65 76 Q79 97 77 105 Z" /><glyph glyph-name="uni5171" unicode="&#x5171;" d="M108 133 Q122 136 143 140 Q144 150 144 165 Q144 181 139 190.5 Q134 200 145 197 Q156 194 161.5 190.5 Q167 187 163.5 180.5 Q160 174 157 143 Q171 146 177.5 147 Q184 148 190.5 142.5 Q197 137 186.5 135 Q176 133 156 129 Q154 104 152 82 Q194 86 208.5 88 Q223 90 233.5 83 Q244 76 243 72.5 Q242 69 224.5 70 Q207 71 183 71 Q160 71 122 66 Q84 61 66 57.5 Q48 54 39 51 Q30 48 18.5 56 Q7 64 24 64.5 Q41 65 94 74 Q95 94 95 116 Q79 112 67 117.5 Q55 123 68 125 Q81 127 95 130 Q95 140 93.5 148.5 Q92 157 87 164.5 Q82 172 90 171 Q98 170 105.5 166.5 Q113 163 111 157 Q109 151 108 133 ZM106 75 Q126 78 139 81 Q142 101 143 126 Q123 122 107 119 Q106 93 106 75 ZM175 38 Q187 33 196 23.5 Q205 14 204 0 Q203 -14 191 -2.5 Q179 9 160.5 29 Q142 49 153 46 Q164 43 175 38 ZM109 45 Q124 36 117.5 33 Q111 30 104 22.5 Q97 15 83.5 4 Q70 -7 56 -13 Q42 -19 55.5 -7 Q69 5 82 21 Q95 37 94.5 45 Q94 53 109 45 Z" /><glyph glyph-name="uni51B5" unicode="&#x51b5;" d="M175 126 Q182 118 178.5 116.5 Q175 115 156 112 Q167 103 163.5 97.5 Q160 92 158 70 Q156 48 159 36 Q162 24 177 21 Q192 18 205 21.5 Q218 25 221.5 33.5 Q225 42 227.5 57.5 Q230 73 231.5 52.5 Q233 32 236.5 24 Q240 16 228.5 10 Q217 4 191.5 4.5 Q166 5 155.5 15 Q145 25 147 49 Q149 73 150 86.5 Q151 100 146 111 L133 108 Q144 100 139.5 96 Q135 92 127.5 76.5 Q120 61 104 44 Q88 27 67 17 Q46 7 65 21.5 Q84 36 103 62 Q122 88 123 107 L120 106 Q117 99 114.5 101.5 Q112 104 110 113.5 Q108 123 104.5 141 Q101 159 96 165.5 Q91 172 96 173 Q101 174 107.5 172 Q114 170 125 171 Q136 172 146 175 Q156 178 161.5 182 Q167 186 175 184 Q183 182 192.5 175.5 Q202 169 191.5 159.5 Q181 150 175 126 ZM120 114 Q137 117 164 123 Q167 150 166 160 Q165 170 157.5 169 Q150 168 115 162 Q117 135 120 114 ZM73 113 Q85 129 78 112 Q71 95 61 74 Q51 53 49 40 Q47 27 39 36 Q31 45 27 55 Q23 65 31 66 Q39 67 50 82 Q61 97 73 113 ZM48 157 Q35 173 50.5 170 Q66 167 72.5 160.5 Q79 154 77.5 144 Q76 134 69 138 Q62 142 48 157 Z" /><glyph glyph-name="uni5236" unicode="&#x5236;" d="M102 73 Q102 56 101.5 30.5 Q101 5 99.5 -2.5 Q98 -10 95.5 -13 Q93 -16 88 -4.5 Q83 7 86.5 19.5 Q90 32 91 71 Q75 68 65 66 Q65 57 65.5 44 Q66 31 63 21 Q60 11 55 17 Q50 23 51.5 31 Q53 39 53 50 Q53 62 50 69.5 Q47 77 52.5 75.5 Q58 74 62 73.5 Q66 73 91 78 L91 103 Q75 100 64 97.5 Q53 95 43 92 Q33 89 24 95.5 Q15 102 26 103 Q37 104 51 106.5 Q65 109 91 114 L91 131 Q80 129 72 129 Q64 129 55 131 Q44 120 37.5 117.5 Q31 115 37 121.5 Q43 128 49 141.5 Q55 155 53.5 162.5 Q52 170 58.5 168.5 Q65 167 71 163.5 Q77 160 73 155.5 Q69 151 59 137 Q72 138 91 143 Q91 164 89 177.5 Q87 191 83.5 197.5 Q80 204 89.5 202 Q99 200 104 196.5 Q109 193 106 186 Q103 179 102 146 Q117 151 125.5 153 Q134 155 138 151.5 Q142 148 133 144 Q124 140 102 135 L102 116 Q120 120 129.5 122.5 Q139 125 146 120 Q153 115 142.5 113 Q132 111 102 106 L102 81 Q116 84 119.5 87 Q123 90 129 88.5 Q135 87 141 83.5 Q147 80 144.5 75.5 Q142 71 140.5 63 Q139 55 139.5 42.5 Q140 30 134 20 Q128 10 124 19 Q120 28 112 33 Q104 38 112 37.5 Q120 37 122.5 39 Q125 41 126 48.5 Q127 56 126.5 63.5 Q126 71 123.5 73.5 Q121 76 115.5 75 Q110 74 102 73 ZM216 189 Q223 184 219 176.5 Q215 169 216 136.5 Q217 104 217.5 80.5 Q218 57 220 32 Q222 7 212 -8 Q202 -23 196.5 -10 Q191 3 183.5 10.5 Q176 18 176.5 19 Q177 20 184.5 17.5 Q192 15 197.5 14.5 Q203 14 204 26 Q205 38 205 88 Q205 138 202.5 160.5 Q200 183 195 190.5 Q190 198 199.5 196 Q209 194 216 189 ZM178 139 Q184 136 181.5 130.5 Q179 125 178.5 111.5 Q178 98 179 86.5 Q180 75 176.5 65.5 Q173 56 167.5 64 Q162 72 164 80 Q166 88 166 108 Q166 128 161.5 136 Q157 144 164.5 143 Q172 142 178 139 Z" /><glyph glyph-name="uni529F" unicode="&#x529f;" d="M172 131 Q196 136 201.5 139 Q207 142 214 139 Q221 136 227 131.5 Q233 127 228.5 121.5 Q224 116 220.5 102 Q217 88 214 69.5 Q211 51 205.5 33.5 Q200 16 191.5 6.5 Q183 -3 175.5 -6 Q168 -9 168 0 Q168 10 158 23.5 Q148 37 158.5 30 Q169 23 174.5 21 Q180 19 185.5 26.5 Q191 34 195 49 Q199 64 202 82 Q205 100 205.5 110 Q206 120 204 123 Q202 126 196 126 Q191 126 171 121 Q161 87 147.5 62.5 Q134 38 114 21 Q94 4 77 -3 Q60 -10 81.5 6.5 Q103 23 123.5 49.5 Q144 76 156 118 Q138 114 131.5 112.5 Q125 111 116.5 117.5 Q108 124 120.5 123.5 Q133 123 158 128 Q163 153 163.5 167 Q164 181 160.5 189 Q157 197 168 193 Q179 189 182 185.5 Q185 182 182 178 Q179 174 177 160.5 Q175 147 172 131 ZM79 133 Q90 126 86.5 120 Q83 114 83 77 Q104 87 117.5 90.5 Q131 94 111 82 Q91 70 71.5 59 Q52 48 46 44 Q40 40 34 43 Q28 46 23 51 Q18 56 24.5 57 Q31 58 39.5 60 Q48 62 71 72 L71 109 Q71 122 68 130 Q49 128 41 132 Q33 136 40 137.5 Q47 139 62.5 142.5 Q78 146 87 149.5 Q96 153 103 154.5 Q110 156 117 152 Q124 148 111.5 142.5 Q99 137 79 133 Z" /><glyph glyph-name="uni52C9" unicode="&#x52c9;" d="M74 165 Q93 166 99 169.5 Q105 173 111 171 Q117 169 122.5 163.5 Q128 158 117.5 154.5 Q107 151 79 125 Q99 130 103.5 132.5 Q108 135 112.5 134.5 Q117 134 125.5 128.5 Q134 123 128.5 118.5 Q123 114 114 95 Q122 88 118 86.5 Q114 85 97 85 Q105 78 102 72 Q99 66 97.5 46 Q96 26 100.5 17.5 Q105 9 122 5.5 Q139 2 164 4 Q189 6 202.5 10.5 Q216 15 219.5 23.5 Q223 32 226 46.5 Q229 61 229.5 41.5 Q230 22 235 13.5 Q240 5 222 -2 Q204 -9 179 -11 Q154 -13 126.5 -9.5 Q99 -6 92 7.5 Q85 21 88 46 Q91 71 87 83 L79 82 Q72 52 57 32.5 Q42 13 25.5 5.5 Q9 -2 21 7.5 Q33 17 46.5 35 Q60 53 67 80 L55 77 Q52 69 49.5 72 Q47 75 43.5 91.5 Q40 108 34 114.5 Q28 121 34 121 Q41 121 45 120.5 Q49 120 70 123 Q83 139 88 145.5 Q93 152 94.5 156 Q96 160 92 159 Q88 158 82.5 157 Q77 156 72 161 Q59 148 43.5 139 Q28 130 42 143.5 Q56 157 66 171.5 Q76 186 76 193 Q76 201 81.5 199 Q87 197 92.5 192.5 Q98 188 93 184.5 Q88 181 74 165 ZM175 126 Q187 129 191 131.5 Q195 134 203 131.5 Q211 129 216 125.5 Q221 122 217 116 Q213 110 209.5 88.5 Q206 67 202 51 Q198 35 186.5 25 Q175 15 174 24.5 Q173 34 164 44 Q155 54 164 50 Q173 46 179 46 Q185 46 190 64.5 Q195 83 197 101.5 Q199 120 193.5 120.5 Q188 121 172 117 Q162 82 147.5 59 Q133 36 117.5 27 Q102 18 116 32.5 Q130 47 141.5 70.5 Q153 94 158 114 Q152 113 146 111.5 Q140 110 135 116 Q130 122 138 121.5 Q146 121 160 123 Q163 137 165 150 Q167 163 164.5 170 Q162 177 169.5 175.5 Q177 174 183 168.5 Q189 163 185.5 158 Q182 153 175 126 ZM79 118 Q84 115 85 112.5 Q86 110 84.5 105.5 Q83 101 80 89 Q89 91 103 93 Q106 112 106 115 Q106 119 104.5 120.5 Q103 122 79 118 ZM51 114 Q54 96 55 85 L69 87 Q71 110 70 117 Q66 116 51 114 Z" /><glyph glyph-name="uni5341" unicode="&#x5341;" d="M138 126 Q157 128 172.5 130.5 Q188 133 203 135 Q218 137 228 127 Q238 117 223 118.5 Q208 120 190 119 Q172 118 138 115 Q137 39 135 10 Q133 -19 128 -20 Q123 -21 122.5 4 Q122 29 122 113 Q105 111 60 103 Q46 100 40 100 Q34 100 25.5 107 Q17 114 26 114 Q36 114 49 115 Q62 116 81.5 118.5 Q101 121 122 124 L122 161 Q122 181 116 191.5 Q110 202 119 200.5 Q128 199 137.5 194 Q147 189 142.5 183 Q138 177 138 126 Z" /><glyph glyph-name="uni5343" unicode="&#x5343;" d="M123 159 Q132 156 135.5 152.5 Q139 149 136.5 143 Q134 137 134 110 Q180 116 197 119 Q214 122 222 118 Q230 114 233.5 107.5 Q237 101 222.5 102.5 Q208 104 185.5 103.5 Q163 103 134 100 L134 24 Q134 -8 129 -21 Q124 -34 122 -19 Q120 -4 120 26 L120 98 Q90 95 70 91.5 Q50 88 42 87.5 Q34 87 26.5 93 Q19 99 24 99 Q30 99 53 101.5 Q76 104 120 109 Q120 149 114 155 Q96 147 80.5 145 Q65 143 78.5 149 Q92 155 108.5 163.5 Q125 172 136.5 180 Q148 188 148.5 192.5 Q149 197 157 193 Q165 189 170 184 Q175 179 166.5 177 Q158 175 144.5 169 Q131 163 123 159 Z" /><glyph glyph-name="uni53C9" unicode="&#x53c9;" d="M136 64 Q178 30 202 21 Q226 12 241 8.5 Q256 5 246.5 2.5 Q237 0 213 -2 Q189 -4 181.5 2 Q174 8 162.5 19.5 Q151 31 128 53 Q107 32 81.5 20.5 Q56 9 32 7 Q8 5 32.5 12.5 Q57 20 78.5 32.5 Q100 45 116 64 Q103 79 87.5 96 Q72 113 60 118.5 Q48 124 61.5 125.5 Q75 127 82 118.5 Q89 110 99 99.5 Q109 89 124 74 Q139 102 144.5 120 Q150 138 151.5 149 Q153 160 145 160 Q137 160 123 157 Q109 154 96.5 151.5 Q84 149 74.5 157 Q65 165 76 164 Q87 163 115.5 166.5 Q144 170 151.5 176 Q159 182 173 172 Q187 164 183 160.5 Q179 157 173.5 149 Q168 141 161 117.5 Q154 94 136 64 ZM104 128 Q100 134 97.5 138.5 Q95 143 108 141.5 Q121 140 125.5 132.5 Q130 125 127.5 119 Q125 113 117 118 Q109 123 104 128 Z" /><glyph glyph-name="uni53EF" unicode="&#x53ef;" d="M163 165 Q177 154 174.5 148.5 Q172 143 172 118 Q172 94 173 69.5 Q174 45 174 26 Q174 7 165.5 -5.5 Q157 -18 151.5 -6 Q146 6 132 16 Q118 26 132.5 22 Q147 18 152 20 Q157 22 158.5 33.5 Q160 45 159.5 90.5 Q159 136 156.5 146.5 Q154 157 150 164 Q111 162 93 159.5 Q75 157 58.5 154.5 Q42 152 31 160.5 Q20 169 31.5 168 Q43 167 65.5 168 Q88 169 135 174.5 Q182 180 201.5 183 Q221 186 231 180.5 Q241 175 241.5 170 Q242 165 227.5 166.5 Q213 168 198.5 167.5 Q184 167 163 165 ZM122 95 Q134 82 123 81.5 Q112 81 79 76 Q77 64 74 65.5 Q71 67 68 80.5 Q65 94 63 104 Q61 114 56.5 121 Q52 128 57 128 Q62 128 68 125.5 Q74 123 86.5 125.5 Q99 128 105.5 133.5 Q112 139 128 131 Q140 123 134 117.5 Q128 112 122 95 ZM76 116 Q77 98 78 84 Q96 87 109 91 Q111 106 111 112 Q111 119 108 120 Q105 121 98 120 Q91 119 76 116 Z" /><glyph glyph-name="uni5408" unicode="&#x5408;" d="M158 10 Q173 -5 156.5 -5.5 Q140 -6 89 -9 Q83 -23 80 -16.5 Q77 -10 74.5 4 Q72 18 69.5 28.5 Q67 39 61.5 47 Q56 55 64.5 54 Q73 53 78 51.5 Q83 50 97 51.5 Q111 53 123.5 55.5 Q136 58 142 62 Q148 66 159.5 61 Q171 56 178 49 Q185 42 175.5 36.5 Q166 31 158 10 ZM125 174 Q136 163 150 150.5 Q164 138 177.5 125.5 Q191 113 206.5 104 Q222 95 239.5 89.5 Q257 84 236.5 82.5 Q216 81 201.5 82 Q187 83 180.5 93.5 Q174 104 157.5 124 Q141 144 122 168 Q110 147 97.5 128 Q85 109 65 90.5 Q45 72 25 64.5 Q5 57 23.5 69.5 Q42 82 63.5 106.5 Q85 131 97.5 157 Q110 183 108 192.5 Q106 202 114.5 199 Q123 196 128.5 191 Q134 186 131 182.5 Q128 179 125 174 ZM84 42 Q86 15 87 0 Q117 4 144 8 Q147 24 147.5 35.5 Q148 47 141.5 47.5 Q135 48 122.5 46.5 Q110 45 84 42 ZM98 97 Q125 102 134.5 106 Q144 110 152 103.5 Q160 97 152.5 94 Q145 91 134 89.5 Q123 88 107 86 Q91 84 81.5 89.5 Q72 95 98 97 Z" /><glyph glyph-name="uni5510" unicode="&#x5510;" d="M91 152 Q87 139 85 126 Q83 113 78 97 Q96 97 136 103 L136 118 Q128 116 122 115 Q116 114 109 119 Q102 124 111 124 Q120 124 136 127 Q136 142 131.5 148 Q127 154 137 152 Q147 150 151 147 Q155 144 153 140.5 Q151 137 150 130 Q171 135 176.5 138 Q182 141 189 138.5 Q196 136 201.5 131.5 Q207 127 202.5 123.5 Q198 120 195 112 L216 115 Q225 117 231 109.5 Q237 102 226 102 Q216 102 190 100 Q188 96 185 84 Q195 73 187.5 72.5 Q180 72 148 68 Q148 58 145.5 49 Q143 40 138 45.5 Q133 51 133 56 Q133 61 134 66 Q123 64 115.5 62.5 Q108 61 100.5 66 Q93 71 100 71 Q108 71 118 72.5 Q128 74 135 75 Q135 82 136 94 Q121 92 114.5 91 Q108 90 97 88 Q86 86 77 93 Q75 85 69 67.5 Q63 50 50.5 31 Q38 12 22 0.5 Q6 -11 18 3.5 Q30 18 43 42 Q56 66 64 94.5 Q72 123 73.5 138 Q75 153 72 160.5 Q69 168 75.5 166 Q82 164 84.5 162.5 Q87 161 94 161 Q101 161 126.5 166 Q152 171 162.5 174 Q173 177 181 178 Q189 179 194.5 174.5 Q200 170 191.5 167 Q183 164 168 161 Q153 158 133 155.5 Q113 153 91 152 ZM186 9 Q193 2 192.5 -1 Q192 -4 182 -4.5 Q172 -5 154.5 -6 Q137 -7 114 -9 Q111 -24 107 -15.5 Q103 -7 99 9 Q95 25 89.5 32.5 Q84 40 92 39.5 Q100 39 104 37.5 Q108 36 136.5 40.5 Q165 45 172.5 49 Q180 53 188.5 49.5 Q197 46 204 40 Q211 34 202 29 Q193 24 186 9 ZM110 29 Q112 9 113 0 Q149 4 172 8 Q176 24 175 30.5 Q174 37 162.5 36 Q151 35 110 29 ZM137 184 Q122 195 119.5 200 Q117 205 136 202.5 Q155 200 153.5 187 Q152 174 137 184 ZM149 106 Q167 108 177 110 Q178 118 178 122 Q178 126 173.5 125.5 Q169 125 150 121 L149 106 ZM148 77 Q161 80 173 82 Q175 93 176 99 Q163 98 149 96 L148 77 Z" /><glyph glyph-name="uni56DB" unicode="&#x56db;" d="M63 38 Q58 21 55 30 Q52 39 48.5 60 Q45 81 41 103.5 Q37 126 33.5 133.5 Q30 141 26 146.5 Q22 152 30.5 151 Q39 150 45.5 148.5 Q52 147 116 154.5 Q180 162 189.5 166.5 Q199 171 208.5 166 Q218 161 226.5 154.5 Q235 148 228.5 140.5 Q222 133 216.5 97.5 Q211 62 207.5 46.5 Q204 31 195.5 17.5 Q187 4 184 15.5 Q181 27 179.5 33.5 Q178 40 169 42.5 Q160 45 122.5 42 Q85 39 63 38 ZM93 143 Q68 141 51 139 Q56 95 62 46 Q80 48 112.5 52 Q145 56 159 57 Q173 58 179.5 51.5 Q186 45 192.5 64 Q199 83 202.5 114.5 Q206 146 199.5 150 Q193 154 182 153.5 Q171 153 146 149 Q154 141 151.5 135.5 Q149 130 149 116 Q149 103 151.5 99 Q154 95 160.5 95.5 Q167 96 174.5 98.5 Q182 101 189 94.5 Q196 88 174.5 84.5 Q153 81 144.5 87 Q136 93 137 116 Q138 139 133 147 L105 144 Q113 137 110 132 Q107 127 99.5 106 Q92 85 73.5 74 Q55 63 69 77.5 Q83 92 89.5 113.5 Q96 135 93 143 Z" /><glyph glyph-name="uni56FD" unicode="&#x56fd;" d="M190 14 Q169 16 143 13.5 Q117 11 97 9.5 Q77 8 64 9 Q57 -17 50.5 -0.5 Q44 16 48.5 28.5 Q53 41 54 100 Q55 159 48 169 Q41 179 47.5 178.5 Q54 178 62 176 Q70 174 99 177.5 Q128 181 149 184.5 Q170 188 178.5 191 Q187 194 196 191 Q205 188 212 181.5 Q219 175 213 167 Q207 159 209.5 94.5 Q212 30 213 16 Q214 2 208 -12 Q202 -26 197.5 -14 Q193 -2 190 14 ZM64 17 Q110 20 143.5 24 Q177 28 193 22 Q197 33 195 99 Q193 165 189 171.5 Q185 178 172.5 177 Q160 176 67 166 Q67 95 64 17 ZM129 137 Q136 132 134.5 127.5 Q133 123 132 112 Q143 114 149.5 115.5 Q156 117 161.5 112 Q167 107 156 104 Q145 101 132 99 L131 62 Q152 65 165 67.5 Q178 70 184.5 62.5 Q191 55 177.5 55.5 Q164 56 147 54 Q130 52 118.5 49.5 Q107 47 96 45 Q85 43 77.5 49.5 Q70 56 81 56 Q93 56 120 61 L120 97 Q101 96 95 99.5 Q89 103 98 105 Q107 107 120 110 Q120 125 117 135 Q100 134 92.5 137.5 Q85 141 94 142.5 Q103 144 121.5 148.5 Q140 153 149 155.5 Q158 158 164 154 Q170 150 162 146 Q154 142 129 137 ZM164 75 Q156 81 151 89 Q146 97 155 95.5 Q164 94 170 89 Q176 84 174.5 76.5 Q173 69 164 75 Z" /><glyph glyph-name="uni5730" unicode="&#x5730;" d="M159 117 Q178 129 181.5 134 Q185 139 193.5 137 Q202 135 208.5 131 Q215 127 211.5 123.5 Q208 120 204.5 112 Q201 104 199.5 91 Q198 78 195 70.5 Q192 63 185 56.5 Q178 50 176 58.5 Q174 67 167 76 Q160 85 166.5 82.5 Q173 80 177 78.5 Q181 77 183.5 84 Q186 91 187.5 108 Q189 125 180 120.5 Q171 116 159 107 Q158 79 156 62 Q154 45 150.5 47.5 Q147 50 146 57.5 Q145 65 146 98 Q134 92 120 83 Q119 39 129 27.5 Q139 16 169 16.5 Q199 17 210.5 22.5 Q222 28 226 34 Q230 40 233 60 Q236 80 237.5 59 Q239 38 244 29.5 Q249 21 240.5 15 Q232 9 212.5 5 Q193 1 170 1.5 Q147 2 132.5 8.5 Q118 15 113.5 31 Q109 47 109 77 Q104 73 101.5 72 Q99 71 92 74.5 Q85 78 91.5 80 Q98 82 108 87 Q108 102 107.5 113 Q107 124 103 132 Q99 140 107.5 138 Q116 136 121 132.5 Q126 129 123 124.5 Q120 120 120 93 Q135 101 146 110 Q146 142 145.5 160 Q145 178 140.5 186 Q136 194 144.5 191.5 Q153 189 160 185.5 Q167 182 164 176 Q161 170 160 153.5 Q159 137 159 117 ZM72 110 Q83 114 87.5 116 Q92 118 97 114 Q102 110 93 105 Q84 100 72 96 L71 55 Q80 59 87.5 62 Q95 65 94 62.5 Q93 60 85 54.5 Q77 49 60 37 Q43 25 37 18.5 Q31 12 25 15.5 Q19 19 14.5 24.5 Q10 30 18.5 31 Q27 32 60 50 L60 92 Q40 87 31 89.5 Q22 92 31.5 95 Q41 98 59 106 Q59 122 58 137.5 Q57 153 51.5 163 Q46 173 65 165 Q77 161 74.5 153.5 Q72 146 72 110 Z" /><glyph glyph-name="uni58F0" unicode="&#x58f0;" d="M184 68 Q199 59 182.5 57.5 Q166 56 142.5 52 Q119 48 86 44 Q82 21 68 4 Q54 -13 32.5 -21 Q11 -29 29 -16.5 Q47 -4 57 9 Q67 22 71 35.5 Q75 49 76 67.5 Q77 86 73.5 94 Q70 102 76 100.5 Q82 99 86 97.5 Q90 96 102 98 Q114 100 143 106 Q172 112 177 115 Q182 118 190 113.5 Q198 109 203.5 104.5 Q209 100 202.5 95 Q196 90 184 68 ZM138 171 Q173 176 184 178.5 Q195 181 202.5 174 Q210 167 199 166.5 Q188 166 173 164.5 Q158 163 138 160 Q137 146 136 136 Q152 138 161 140 Q170 142 177 136 Q184 130 165.5 128 Q147 126 127.5 122.5 Q108 119 100.5 118 Q93 117 86.5 121.5 Q80 126 84.5 126.5 Q89 127 103 129 Q117 131 125 134 L125 157 Q90 152 83 150.5 Q76 149 67 156 Q58 163 68 163 Q79 163 96 165 Q113 167 125 169 Q125 196 121.5 203 Q118 210 125.5 208 Q133 206 139 204 Q145 202 142.5 197.5 Q140 193 138 171 ZM130 95 Q142 88 139.5 83 Q137 78 134 61 Q160 65 174 68 Q177 83 178 91.5 Q179 100 175.5 101.5 Q172 103 130 95 ZM91 89 Q91 77 89 54 Q99 54 125 59 Q126 90 122 94 Q99 91 91 89 Z" /><glyph glyph-name="uni591A" unicode="&#x591a;" d="M142 95 Q155 95 166.5 97.5 Q178 100 183.5 103 Q189 106 197 102.5 Q205 99 212 93 Q219 87 212 83.5 Q205 80 194 67 Q183 54 159.5 32.5 Q136 11 106 -3.5 Q76 -18 48.5 -21 Q21 -24 47 -16 Q73 -8 100 7 Q127 22 139 34 Q131 40 120 51.5 Q109 63 114 64 Q119 65 131.5 60.5 Q144 56 145 38 Q161 51 173 66.5 Q185 82 185 87 Q185 92 174.5 90 Q164 88 154.5 86.5 Q145 85 137 91 Q121 75 101 64.5 Q81 54 65.5 50 Q50 46 67 55 Q84 64 102.5 77.5 Q121 91 127.5 101.5 Q134 112 134 116 Q134 121 141 118 Q148 115 152 110.5 Q156 106 152 103.5 Q148 101 142 95 ZM131 185 Q157 185 164.5 188.5 Q172 192 178.5 189 Q185 186 190.5 181.5 Q196 177 189.5 174.5 Q183 172 176.5 164 Q170 156 158.5 145 Q147 134 135 125.5 Q123 117 101.5 107 Q80 97 62.5 96 Q45 95 60 100.5 Q75 106 90.5 113.5 Q106 121 124 133 Q107 147 105 152 Q103 157 112.5 155.5 Q122 154 127 149 Q132 144 131 138 Q139 144 149 155 Q159 166 161 172 Q163 178 155 178 Q148 178 141 177 Q134 176 127 180 Q117 171 100.5 158.5 Q84 146 65.5 140.5 Q47 135 65 145.5 Q83 156 102.5 175.5 Q122 195 122.5 203 Q123 211 128.5 208.5 Q134 206 140 201 Q146 196 143 194 Q140 192 131 185 Z" /><glyph glyph-name="uni5927" unicode="&#x5927;" d="M127 118 Q160 123 177 127 Q194 131 202 125 Q210 119 206.5 117 Q203 115 173 112.5 Q143 110 126 107 L124 89 Q147 56 163.5 39 Q180 22 199.5 12.5 Q219 3 234.5 -2.5 Q250 -8 225 -8 Q201 -8 188 -7.5 Q175 -7 165.5 6.5 Q156 20 147.5 34 Q139 48 123 78 Q113 38 95.5 20 Q78 2 54.5 -5.5 Q31 -13 48.5 -3 Q66 7 79 21 Q92 35 101 56.5 Q110 78 112 104 Q77 99 70 97 Q63 95 50.5 103 Q38 111 55 110.5 Q72 110 113 116 Q114 142 113.5 161.5 Q113 181 108 190 Q103 199 113 196.5 Q123 194 130 190.5 Q137 187 132.5 178.5 Q128 170 127 118 Z" /><glyph glyph-name="uni5949" unicode="&#x5949;" d="M128 177 Q149 181 162.5 185 Q176 189 183 182.5 Q190 176 175 173.5 Q160 171 126 166 Q124 156 123 149 Q138 152 151.5 155 Q165 158 172 152.5 Q179 147 165 145 Q151 143 120 138 Q118 130 115 123 Q129 125 146 128 Q163 131 172.5 133.5 Q182 136 189 132 Q196 128 194 125.5 Q192 123 183.5 122 Q175 121 147 118 Q169 99 187 85 Q205 71 218.5 65 Q232 59 243.5 56 Q255 53 233 50 Q211 47 205 49 Q199 51 192.5 57.5 Q186 64 174 79 Q162 94 139 117 Q125 115 113 114 Q104 91 93 76 Q82 61 67 49 Q52 37 30 29.5 Q8 22 27 32 Q46 42 66 62.5 Q86 83 99 111 Q77 107 71 105.5 Q65 104 57 110 Q49 116 62.5 116.5 Q76 117 102 121 Q104 126 106 136 Q95 135 90 134.5 Q85 134 79 138.5 Q73 143 82 143.5 Q91 144 109 147 Q111 154 112 164 Q96 161 89.5 161.5 Q83 162 80 166 Q77 170 83.5 170.5 Q90 171 114 175 Q115 182 115 190 Q115 198 112.5 206 Q110 214 124 207 Q135 202 132.5 197 Q130 192 128 177 ZM147 82 Q154 83 158 78.5 Q162 74 155 71.5 Q148 69 134 67 L134 47 Q155 49 167.5 52 Q180 55 188 47 Q196 39 183 39.5 Q170 40 134 37 Q134 4 132 -9.5 Q130 -23 127 -24 Q124 -25 123 -6 Q122 13 122 35 Q108 33 100 31 L85 28 Q78 27 70 33 Q62 39 71 39 Q80 39 90 40 L122 45 L122 65 Q104 63 97 66 Q90 69 98 71.5 Q106 74 122 77 Q122 97 117.5 104.5 Q113 112 121 110.5 Q129 109 133 106.5 Q137 104 135 100.5 Q133 97 133 80 L147 82 Z" /><glyph glyph-name="uni5958" unicode="&#x5958;" d="M127 69 Q165 73 183 76.5 Q201 80 212 71.5 Q223 63 203 63.5 Q183 64 159.5 62.5 Q136 61 126 60 Q147 36 162.5 25 Q178 14 193 7 Q208 0 227.5 -5 Q247 -10 227.5 -12.5 Q208 -15 193 -14.5 Q178 -14 169 -4.5 Q160 5 148.5 19 Q137 33 124 51 Q111 18 90 5 Q69 -8 49 -10 Q29 -12 48.5 -5 Q68 2 85.5 16 Q103 30 111 58 Q89 55 74.5 52.5 Q60 50 52 49 Q44 48 35 55 Q26 62 39.5 61 Q53 60 113 68 Q116 86 113.5 92.5 Q111 99 118 97 Q125 95 129 92 Q133 89 131.5 86 Q130 83 127 69 ZM95 131 Q82 128 71 125 Q74 122 75.5 119.5 Q77 117 66 102.5 Q55 88 43.5 81 Q32 74 40.5 83.5 Q49 93 55.5 104.5 Q62 116 60 122 Q47 118 44 118 Q41 118 33.5 124 Q26 130 38.5 129 Q51 128 95 139 L95 158 Q71 149 66.5 146 Q62 143 58.5 147.5 Q55 152 58.5 160.5 Q62 169 54 178 Q46 187 57 185.5 Q68 184 68 179 L68 167 Q68 161 70 159.5 Q72 158 78 161 Q84 164 95 166 Q94 184 90 191.5 Q86 199 98.5 194 Q111 189 108.5 182.5 Q106 176 105.5 157.5 Q105 139 105 119 Q105 99 102.5 89.5 Q100 80 94.5 88.5 Q89 97 91.5 104 Q94 111 95 131 ZM170 150 Q185 153 193 154.5 Q201 156 207 151 Q213 146 206 144.5 Q199 143 170 139 Q169 124 169 111 Q183 113 189.5 113.5 Q196 114 201 108 Q206 102 194 101.5 Q182 101 164.5 98.5 Q147 96 141.5 95 Q136 94 128.5 98.5 Q121 103 132 104.5 Q143 106 157 109 L157 137 Q137 134 131.5 132.5 Q126 131 118.5 137 Q111 143 123 143.5 Q135 144 157 148 Q157 169 156.5 179.5 Q156 190 152.5 196 Q149 202 154 202 Q159 202 169 197.5 Q179 193 175.5 186.5 Q172 180 170 150 Z" /><glyph glyph-name="uni59DA" unicode="&#x59da;" d="M88 100 Q91 113 89 121.5 Q87 130 97 124.5 Q107 119 105.5 116 Q104 113 102 105 Q100 97 96.5 81 Q93 65 84 47 Q95 39 99.5 32.5 Q104 26 100.5 20 Q97 14 91.5 20.5 Q86 27 78 36 Q70 23 59 13.5 Q48 4 34.5 -0.5 Q21 -5 39 8 Q57 21 70 44 Q61 53 55.5 57 Q50 61 51.5 65 Q53 69 55 84 Q31 75 28 73 Q25 71 19.5 74 Q14 77 10.5 81.5 Q7 86 18 86 Q30 86 58 94 Q64 135 64 151 Q64 167 59 174 Q54 181 60.5 180.5 Q67 180 75 175.5 Q83 171 80.5 166.5 Q78 162 75 142 Q72 122 68 96 L88 100 ZM186 91 Q193 104 199 116 Q205 128 205 133 Q205 139 208.5 138 Q212 137 220.5 132 Q229 127 221.5 123 Q214 119 190 89 Q214 83 218.5 76 Q223 69 220.5 63 Q218 57 210 65 Q202 73 180 87 Q179 46 181 31.5 Q183 17 199 14 Q215 11 223.5 16 Q232 21 234 35.5 Q236 50 237 50 Q239 50 239.5 35 Q240 20 244 14.5 Q248 9 235.5 3.5 Q223 -2 205 -1 Q187 0 179 8 Q171 16 170.5 42.5 Q170 69 171 117 Q172 165 167 174 Q162 183 172 180.5 Q182 178 185 175 Q188 172 186 166.5 Q184 161 182 144 Q180 127 180 91 L186 91 ZM143 84 Q134 76 128.5 69.5 Q123 63 118.5 59 Q114 55 111.5 52.5 Q109 50 101 57 Q93 64 104 66.5 Q115 69 143 89 Q143 120 141 131.5 Q139 143 134.5 149 Q130 155 134 155 Q139 155 148 151.5 Q157 148 155.5 141 Q154 134 154 103 Q154 73 151 58 Q148 43 142 33.5 Q136 24 130 18 Q124 12 117.5 8.5 Q111 5 104.5 3 Q98 1 109.5 10.5 Q121 20 130.5 36.5 Q140 53 143 84 ZM66 88 Q61 73 59 63 L75 53 Q82 66 87 93 Q71 89 66 88 ZM119 102 Q115 108 111.5 115 Q108 122 118.5 118.5 Q129 115 131 109 Q133 103 132 99 Q131 95 127 96 Q123 97 119 102 Z" /><glyph glyph-name="uni5B9E" unicode="&#x5b9e;" d="M135 77 Q163 82 187.5 85.5 Q212 89 219.5 77.5 Q227 66 206 69 Q185 72 133 67 Q124 28 101.5 10 Q79 -8 53 -13 Q27 -18 48.5 -9 Q70 0 89.5 16.5 Q109 33 118 65 Q66 57 53 54 Q40 51 30 58.5 Q20 66 36 66 Q52 66 73.5 68.5 Q95 71 120 75 Q123 86 124.5 106.5 Q126 127 121.5 138.5 Q117 150 133 144 Q149 138 144.5 131.5 Q140 125 139 111.5 Q138 98 135 77 ZM64 151 Q57 125 49.5 120 Q42 115 40.5 125.5 Q39 136 43.5 141.5 Q48 147 53.5 162 Q59 177 61.5 172 Q64 167 64 157 Q78 158 114.5 163 Q151 168 160.5 170 Q170 172 178.5 174.5 Q187 177 202 165.5 Q217 154 216 150.5 Q215 147 203.5 146 Q192 145 179 137.5 Q166 130 174 142.5 Q182 155 180 158.5 Q178 162 172 162.5 Q166 163 117 156.5 Q68 150 64 151 ZM168 16 Q159 28 149.5 38 Q140 48 165 36 Q190 24 199.5 10 Q209 -4 205 -13.5 Q201 -23 189.5 -9.5 Q178 4 168 16 ZM120 176 Q110 184 104 194.5 Q98 205 110 202.5 Q122 200 128.5 194.5 Q135 189 132.5 178.5 Q130 168 120 176 ZM68 98 Q60 109 78 104.5 Q96 100 97.5 92.5 Q99 85 97 80.5 Q95 76 86 82 Q77 88 68 98 ZM83 127 Q75 137 89.5 134 Q104 131 107 125 Q110 119 109 112.5 Q108 106 99.5 111.5 Q91 117 83 127 Z" /><glyph glyph-name="uni5C11" unicode="&#x5c11;" d="M164 124 Q172 121 177.5 115 Q183 109 177.5 104.5 Q172 100 160 77.5 Q148 55 131 36.5 Q114 18 90.5 3.5 Q67 -11 41.5 -17 Q16 -23 39.5 -13 Q63 -3 86 15 Q109 33 125.5 51.5 Q142 70 151.5 91.5 Q161 113 158.5 120 Q156 127 164 124 ZM123 201 Q137 197 133 188.5 Q129 180 129 150 Q129 120 127.5 104.5 Q126 89 122.5 87 Q119 85 114 94.5 Q109 104 112.5 114.5 Q116 125 116 155 Q116 186 111 193.5 Q106 201 107.5 203 Q109 205 123 201 ZM53 125 Q57 136 58.5 142.5 Q60 149 64 143.5 Q68 138 68 125 Q68 113 59.5 96.5 Q51 80 46 90 Q41 100 45 107 Q49 114 53 125 ZM204 154 Q219 151 219.5 138.5 Q220 126 209 131.5 Q198 137 182.5 146.5 Q167 156 174.5 156.5 Q182 157 186 157.5 Q190 158 204 154 Z" /><glyph glyph-name="uni5DF1" unicode="&#x5df1;" d="M125 127 Q131 157 131 162 Q131 167 115 164 Q99 161 84.5 156.5 Q70 152 60 160 Q50 168 62.5 167.5 Q75 167 100 170.5 Q125 174 131 180.5 Q137 187 144.5 183.5 Q152 180 161 173.5 Q170 167 159.5 161.5 Q149 156 136 133 Q149 122 138.5 119.5 Q128 117 99.5 112.5 Q71 108 62 109 Q57 84 58 61.5 Q59 39 70.5 29.5 Q82 20 104.5 17.5 Q127 15 156 19 Q185 23 196 31.5 Q207 40 212.5 61 Q218 82 217 60 Q216 38 222.5 31.5 Q229 25 206 15 Q183 5 138 2.5 Q93 0 74 10 Q55 20 50 37.5 Q45 55 47 82 Q49 109 44.5 118 Q40 127 46.5 125.5 Q53 124 60 117 Q100 121 125 127 Z" /><glyph glyph-name="uni5E08" unicode="&#x5e08;" d="M165 160 Q175 151 174 148 Q173 145 172 128 Q197 132 202 135.5 Q207 139 219 133 Q231 127 226.5 123.5 Q222 120 221 106 Q220 92 221 76 Q222 60 213.5 50 Q205 40 202 48.5 Q199 57 188 65.5 Q177 74 184 72 L198 69 Q205 68 206 82 Q207 96 206 109 Q205 122 201 123 Q197 124 172 120 Q172 22 169.5 -3 Q167 -28 163 -28.5 Q159 -29 158.5 20 Q158 69 158 118 Q142 116 130 114 Q131 75 127.5 60 Q124 45 118 55.5 Q112 66 114.5 73 Q117 80 118 96.5 Q119 113 114.5 120.5 Q110 128 116.5 126 Q123 124 127 122 Q131 120 158 125 Q158 147 155 159 Q128 154 122 153 Q116 152 108.5 158 Q101 164 114.5 165 Q128 166 153.5 170 Q179 174 196 178.5 Q213 183 222 176.5 Q231 170 226 168.5 Q221 167 204.5 165 Q188 163 165 160 ZM91 187 Q97 183 95 178.5 Q93 174 92 147 Q91 120 88.5 97.5 Q86 75 79.5 57.5 Q73 40 62.5 26.5 Q52 13 34 3.5 Q16 -6 33.5 10 Q51 26 62.5 50.5 Q74 75 76 101.5 Q78 128 78 152 Q78 176 73.5 185.5 Q69 195 77 193 Q85 191 91 187 ZM50 149 Q55 146 53 140.5 Q51 135 50 112 Q49 89 46 78 Q43 67 37.5 76.5 Q32 86 35 94.5 Q38 103 38.5 123 Q39 143 36 150 Q33 157 39 155 Q45 153 50 149 Z" /><glyph glyph-name="uni5E94" unicode="&#x5e94;" d="M147 15 Q182 18 198.5 20.5 Q215 23 223.5 14.5 Q232 6 225.5 5.5 Q219 5 208 5.5 Q197 6 174 5.5 Q151 5 122 0.5 Q93 -4 85.5 -5.5 Q78 -7 68 1 Q58 9 62 9.5 Q66 10 74 9.5 Q82 9 139 15 Q164 61 172.5 85.5 Q181 110 180 120.5 Q179 131 184 129.5 Q189 128 199 121.5 Q209 115 204.5 110.5 Q200 106 195.5 98.5 Q191 91 180 69 Q169 47 147 15 ZM84 140 Q81 92 74 66 Q67 40 55.5 23 Q44 6 24.5 -8.5 Q5 -23 21 -5.5 Q37 12 48.5 36.5 Q60 61 64.5 88 Q69 115 69 128 Q69 141 66.5 148.5 Q64 156 69.5 154.5 Q75 153 84 147 Q120 151 146.5 157.5 Q173 164 181 166 Q189 168 197 163 Q205 158 196.5 154 Q188 150 162 146.5 Q136 143 117.5 141 Q99 139 84 140 ZM97 63 Q93 72 88 82.5 Q83 93 96.5 85 Q110 77 116.5 67 Q123 57 118.5 47 Q114 37 107.5 46 Q101 55 97 63 ZM129 89 Q125 98 123 106 Q121 114 133 106 Q145 98 149 89.5 Q153 81 149 71.5 Q145 62 139 71 Q133 80 129 89 ZM129 181 Q120 189 115.5 195 Q111 201 122.5 200 Q134 199 142 194.5 Q150 190 150 180 Q150 171 144.5 172 Q139 173 129 181 Z" /><glyph glyph-name="uni5FC5" unicode="&#x5fc5;" d="M109 45 Q123 33 154.5 32.5 Q186 32 184.5 39.5 Q183 47 178 62 Q173 77 180 68.5 Q187 60 194.5 51.5 Q202 43 212 36 Q222 29 212 23.5 Q202 18 179.5 16 Q157 14 134 18 Q111 22 99 34 Q83 20 68 11.5 Q53 3 37.5 -1.5 Q22 -6 35.5 2.5 Q49 11 62 20.5 Q75 30 90 45 Q83 59 79 74 Q75 89 75.5 102.5 Q76 116 80 103 Q84 90 90.5 75 Q97 60 100 57 Q122 83 136.5 109.5 Q151 136 156 150.5 Q161 165 158.5 176 Q156 187 171 177 Q186 167 182.5 162.5 Q179 158 171 141.5 Q163 125 146 97 Q129 69 109 45 ZM38 93 Q43 103 46.5 111 Q50 119 51 101 Q52 83 47 69 Q42 55 36 50 Q30 45 26.5 54 Q23 63 28.5 73.5 Q34 84 38 93 ZM221 112 Q230 106 230.5 97.5 Q231 89 228 87 Q225 85 214.5 91.5 Q204 98 190.5 111.5 Q177 125 185 124 Q193 123 203 120.5 Q213 118 221 112 ZM103 142 Q96 153 93 161 Q90 169 103 163.5 Q116 158 121 150 Q126 142 122 132.5 Q118 123 103 142 Z" /><glyph glyph-name="uni5FD7" unicode="&#x5fd7;" d="M131 152 Q156 156 168.5 160 Q181 164 190.5 157.5 Q200 151 186.5 148.5 Q173 146 131 141 Q130 120 130 107 Q143 109 154.5 111 Q166 113 172.5 105.5 Q179 98 165 98 Q152 98 125 94.5 Q98 91 89 89 Q80 87 70 92 Q60 97 70 97 Q80 97 118 104 L118 139 Q96 137 84.5 134 Q73 131 62 136.5 Q51 142 65 143 Q79 144 118 150 Q117 193 111.5 199 Q106 205 111.5 205.5 Q117 206 128 201.5 Q139 197 135.5 190.5 Q132 184 131 152 ZM79 54 Q84 38 99 24 Q114 10 142.5 8.5 Q171 7 175.5 10.5 Q180 14 178.5 20.5 Q177 27 173.5 38 Q170 49 180 34.5 Q190 20 203 12.5 Q216 5 198 -1.5 Q180 -8 151 -8 Q123 -8 103 3.5 Q83 15 76.5 38.5 Q70 62 72.5 66 Q75 70 79 54 ZM207 75 Q218 72 224.5 62.5 Q231 53 229 45.5 Q227 38 217.5 44.5 Q208 51 193 65.5 Q178 80 187 79 Q196 78 207 75 ZM38 46 Q46 57 50 65.5 Q54 74 56.5 60 Q59 46 49.5 29.5 Q40 13 34 15 Q28 17 29 26.5 Q30 36 38 46 ZM134 71 Q147 65 143 53.5 Q139 42 125 58.5 Q111 75 116 76.5 Q121 78 134 71 Z" /><glyph glyph-name="uni5FF5" unicode="&#x5ff5;" d="M121 184 Q139 168 162 148.5 Q185 129 201.5 121.5 Q218 114 236 108.5 Q254 103 239 100.5 Q224 98 208.5 97.5 Q193 97 183 107.5 Q173 118 156.5 136.5 Q140 155 118 179 Q90 137 65.5 115 Q41 93 22 87.5 Q3 82 21.5 94 Q40 106 59 126 Q78 146 94 171.5 Q110 197 107 204 Q104 211 117 205 Q130 199 127.5 195 Q125 191 121 184 ZM75 48 Q79 40 86 28 Q93 16 106.5 7 Q120 -2 138 -2 Q157 -2 161.5 0.5 Q166 3 165.5 8 Q165 13 162.5 24.5 Q160 36 169 22 Q178 8 189 2 Q200 -4 182.5 -10.5 Q165 -17 135 -15.5 Q105 -14 91 2 Q77 18 74 37 Q71 56 75 48 ZM156 107 Q167 98 160 95.5 Q153 93 140.5 82 Q128 71 115.5 64.5 Q103 58 114.5 70.5 Q126 83 131.5 89 Q137 95 136.5 97.5 Q136 100 118.5 94 Q101 88 90.5 85 Q80 82 68 88 Q56 94 72.5 95 Q89 96 112 102 Q135 108 140 112 Q145 116 156 107 ZM178 65 Q199 62 206.5 52 Q214 42 210 36.5 Q206 31 196 37.5 Q186 44 171.5 56.5 Q157 69 178 65 ZM45 51 Q51 64 53.5 50.5 Q56 37 44.5 17.5 Q33 -2 28.5 9 Q24 20 32 29 Q40 38 45 51 ZM134 47 Q139 40 137.5 32 Q136 24 128 30.5 Q120 37 111.5 48.5 Q103 60 116.5 57 Q130 54 134 47 ZM114 118 Q106 124 100 131.5 Q94 139 104 139 Q114 139 121.5 133.5 Q129 128 126 120 Q123 112 114 118 Z" /><glyph glyph-name="uni601D" unicode="&#x601d;" d="M158 104 Q120 98 87 95 Q83 80 77.5 96 Q72 112 64.5 138.5 Q57 165 52 170.5 Q47 176 53 176 Q60 176 66 174.5 Q72 173 97 177 Q122 181 142.5 185.5 Q163 190 168.5 192.5 Q174 195 182.5 192 Q191 189 197.5 184 Q204 179 197 172.5 Q190 166 184.5 145 Q179 124 171 107.5 Q163 91 158 104 ZM81 46 Q91 31 109 21 Q127 11 148 11 Q169 11 178 14 Q187 17 185 23.5 Q183 30 178 44 Q173 58 187 40.5 Q201 23 213.5 16.5 Q226 10 202.5 1.5 Q179 -7 146.5 -5 Q114 -3 98 11 Q82 25 76.5 43.5 Q71 62 81 46 ZM128 146 Q138 148 143.5 149.5 Q149 151 155 147 Q161 143 153.5 140.5 Q146 138 128 135 Q127 124 126 110 Q150 113 160 113 Q165 130 168.5 150 Q172 170 169.5 175 Q167 180 154.5 178.5 Q142 177 125 174 Q132 167 130.5 163.5 Q129 160 128 146 ZM112 172 Q84 168 74 166 Q79 136 86 102 Q98 104 116 108 L116 133 Q107 131 103 130 Q99 129 91.5 133.5 Q84 138 93 139.5 Q102 141 116 144 Q117 160 112 172 ZM212 89 Q227 88 232.5 77 Q238 66 234.5 60.5 Q231 55 221.5 61 Q212 67 198 78.5 Q184 90 190 90 Q197 90 212 89 ZM39 50 Q46 60 49 70.5 Q52 81 56.5 68.5 Q61 56 49.5 33 Q38 10 34 18 Q30 26 31 33 Q32 40 39 50 ZM134 78 Q151 73 147.5 59 Q144 45 126 62.5 Q108 80 112.5 82 Q117 84 134 78 Z" /><glyph glyph-name="uni611F" unicode="&#x611f;" d="M145 171 Q157 174 164.5 175.5 Q172 177 178 173 Q184 169 171.5 166 Q159 163 148 161 Q156 131 170 108 Q176 117 178.5 124 Q181 131 180 138 Q179 145 184.5 142 Q190 139 196 134 Q202 129 197.5 126.5 Q193 124 189.5 117.5 Q186 111 177 95 Q188 81 197 74 Q206 67 211.5 65 Q217 63 219.5 68.5 Q222 74 225 83 Q228 92 227.5 75 Q227 58 232 48 Q237 38 221 43.5 Q205 49 192 60.5 Q179 72 169 85 Q151 66 136 59.5 Q121 53 133 62.5 Q145 72 162 96 Q148 123 136 158 Q90 149 76 149 Q76 120 71 102.5 Q66 85 57.5 70.5 Q49 56 30 44 Q11 32 27 48 Q43 64 49 77.5 Q55 91 59 105 Q63 119 63.5 131.5 Q64 144 58.5 153 Q53 162 60.5 159.5 Q68 157 73 156 Q78 155 133 168 Q132 174 127.5 186.5 Q123 199 117 204.5 Q111 210 119.5 210.5 Q128 211 135.5 209 Q143 207 140.5 201.5 Q138 196 145 171 ZM127 82 Q136 73 127 72 Q118 71 92 65 Q90 55 85.5 64.5 Q81 74 79 82 Q77 90 73.5 96 Q70 102 75 101 L85 100 Q90 100 100.5 103 Q111 106 116 110 Q121 114 126.5 111.5 Q132 109 137 105 Q142 101 136 97 Q130 93 127 82 ZM100 23 Q109 13 120 8 Q131 3 150 3 Q170 3 170.5 8 Q171 13 166 26 Q161 39 172.5 23.5 Q184 8 193.5 2 Q203 -4 186.5 -8.5 Q170 -13 142.5 -11.5 Q115 -10 99 7.5 Q83 25 80.5 37.5 Q78 50 85 41.5 Q92 33 100 23 ZM206 39 Q214 37 220 32 Q226 27 225 17 Q224 7 212.5 15 Q201 23 190 33 Q179 43 189 42 Q199 41 206 39 ZM58 42 Q62 48 63.5 36 Q65 24 56 7.5 Q47 -9 43 -2.5 Q39 4 41.5 11.5 Q44 19 49 28 Q54 37 58 42 ZM89 94 Q90 83 92 72 Q104 75 117 78 L117 94 Q117 100 110 98 L89 94 ZM118 138 Q126 141 132 136 Q138 131 129 128 Q120 125 109.5 123 Q99 121 90 123.5 Q81 126 87.5 128 Q94 130 102 132.5 Q110 135 118 138 ZM167 190 Q158 198 168 198 Q179 198 188 194.5 Q197 191 196.5 181 Q196 171 186.5 176.5 Q177 182 167 190 ZM127 55 Q133 53 137 49 Q141 45 139.5 36 Q138 27 130.5 33.5 Q123 40 116 48 Q109 56 115.5 57 Q122 58 127 55 Z" /><glyph glyph-name="uni613F" unicode="&#x613f;" d="M139 179 Q146 175 149.5 171 Q153 167 126 146 Q169 153 176 157.5 Q183 162 189.5 159 Q196 156 203 152 Q210 148 205 144.5 Q200 141 193.5 122 Q187 103 181 95 Q175 87 172 99 L152 97 Q157 92 156 86 Q155 80 155 70 Q155 60 149.5 52.5 Q144 45 140 51.5 Q136 58 126.5 62.5 Q117 67 126.5 66.5 Q136 66 139.5 68 Q143 70 143 80 Q143 90 139 96 Q130 95 116 93 Q111 85 108 97.5 Q105 110 102.5 123 Q100 136 97 141 Q94 146 99 145.5 Q104 145 109 144 Q114 143 120 145 Q137 169 131 178 Q111 176 82 175 Q78 143 73 115.5 Q68 88 59 66 Q50 44 38.5 28.5 Q27 13 15 4 Q3 -5 13.5 8.5 Q24 22 35.5 45.5 Q47 69 54.5 95.5 Q62 122 65 149 Q68 176 63.5 183.5 Q59 191 66 189 Q73 187 77 184.5 Q81 182 94 184 Q107 186 130 190 Q153 194 166.5 197.5 Q180 201 188.5 198.5 Q197 196 195 192 Q193 188 139 179 ZM116 117 Q117 106 117 99 Q127 101 144 104 Q161 107 167 105.5 Q173 104 176 110.5 Q179 117 182 132 Q185 147 179 147.5 Q173 148 149 144 Q125 140 113 137 L114 121 Q131 124 142.5 127 Q154 130 159.5 126 Q165 122 143.5 118 Q122 114 116 117 ZM112 28 Q120 16 131.5 10.5 Q143 5 159 5.5 Q175 6 175 10 Q175 14 169.5 26.5 Q164 39 176.5 26.5 Q189 14 202 5.5 Q215 -3 195.5 -7.5 Q176 -12 152 -9 Q128 -6 116.5 7.5 Q105 21 101.5 32.5 Q98 44 101.5 42 Q105 40 112 28 ZM200 52 Q215 49 221 44.5 Q227 40 227 29 Q227 19 212.5 28.5 Q198 38 184.5 46 Q171 54 178.5 54.5 Q186 55 200 52 ZM76 39 Q80 51 82 35.5 Q84 20 73.5 5.5 Q63 -9 59.5 1 Q56 11 64 19 Q72 27 76 39 ZM202 84 Q214 83 216.5 69 Q219 55 195 71 Q171 87 180.5 86.5 Q190 86 202 84 ZM88 69 Q94 76 98 85 Q102 94 102.5 78.5 Q103 63 97 53 Q91 43 87 52.5 Q83 62 88 69 ZM142 44 Q148 42 152 38.5 Q156 35 154.5 27 Q153 19 145.5 25 Q138 31 131 38.5 Q124 46 130 46 Q136 46 142 44 Z" /><glyph glyph-name="uni6216" unicode="&#x6216;" d="M127 156 Q139 161 146 163 Q153 165 158.5 160 Q164 155 157 152 Q150 149 130 145 Q143 100 159 69 Q163 80 167.5 96 Q172 112 168.5 120 Q165 128 172 125.5 Q179 123 187.5 118.5 Q196 114 190.5 108.5 Q185 103 182 92 Q179 81 167 56 Q186 31 201.5 19 Q217 7 220 13.5 Q223 20 227 33 Q231 46 230 23 Q229 0 232 -9.5 Q235 -19 228 -19 Q222 -19 200 -0.5 Q178 18 159 44 Q152 34 140.5 23 Q129 12 112.5 6 Q96 0 114 13.5 Q132 27 152 56 Q136 83 119 142 Q96 136 85 133.5 Q74 131 69 131 Q64 131 57.5 135 Q51 139 64 141 Q77 143 116 153 Q107 186 99.5 194.5 Q92 203 102.5 202 Q113 201 119.5 199 Q126 197 123.5 191.5 Q121 186 127 156 ZM112 84 Q118 74 110.5 72 Q103 70 72 62 Q69 54 66 58.5 Q63 63 58 77.5 Q53 92 48.5 97.5 Q44 103 48.5 103.5 Q53 104 59.5 103 Q66 102 74 104.5 Q82 107 89 109 Q96 111 100 115 Q104 119 109 116.5 Q114 114 120.5 110 Q127 106 123 102.5 Q119 99 112 84 ZM109 46 Q124 49 109.5 42.5 Q95 36 73 28 Q51 20 45 14.5 Q39 9 35 12 Q31 15 24.5 22.5 Q18 30 27.5 29 Q37 28 65.5 35.5 Q94 43 109 46 ZM72 70 Q85 74 99 81 Q101 94 101.5 100 Q102 106 97 104 Q92 102 67 97 Q68 88 72 70 ZM158 192 Q151 202 163 199.5 Q175 197 179.5 192.5 Q184 188 182 179.5 Q180 171 172.5 176.5 Q165 182 158 192 Z" /><glyph glyph-name="uni62DC" unicode="&#x62dc;" d="M181 147 Q188 149 194.5 150 Q201 151 205.5 148 Q210 145 203 141 Q196 137 181 133 L181 117 Q188 119 195 119.5 Q202 120 204.5 116 Q207 112 197.5 109.5 Q188 107 181 104 L181 83 Q216 89 224 90 Q232 91 242.5 82.5 Q253 74 236.5 75 Q220 76 181 72 Q181 37 179.5 11.5 Q178 -14 174 -19.5 Q170 -25 168 -6 Q166 13 166 70 Q133 64 123.5 60.5 Q114 57 103.5 62.5 Q93 68 108 69 Q123 70 166 80 L166 101 Q161 100 155.5 99.5 Q150 99 143 103 Q136 107 144 109 Q152 111 166 114 L166 131 Q159 130 154 130 Q149 130 142.5 133.5 Q136 137 144 139 Q152 141 166 144 Q166 154 165 167 Q147 170 143.5 173.5 Q140 177 150.5 178 Q161 179 174.5 182.5 Q188 186 197 188 Q206 190 215.5 185 Q225 180 211 175.5 Q197 171 181 168 L181 147 ZM83 93 Q92 95 106 99 Q120 103 123.5 99.5 Q127 96 113.5 92.5 Q100 89 82 83 Q81 58 70 35.5 Q59 13 44.5 1.5 Q30 -10 27.5 -9.5 Q25 -9 37 2.5 Q49 14 58.5 37 Q68 60 69 78 Q38 69 32.5 65.5 Q27 62 21.5 66 Q16 70 12.5 76.5 Q9 83 20 82 Q31 81 70 90 Q72 104 72 117 Q62 114 57 115 Q52 116 47 118.5 Q42 121 50 122.5 Q58 124 72 128 Q71 153 65 158 Q54 156 53 158 Q52 160 60.5 163.5 Q69 167 81 175.5 Q93 184 93.5 190 Q94 196 99.5 194.5 Q105 193 114.5 186 Q124 179 114 176 Q104 173 73 162 Q89 156 87 150 Q85 144 85 131 L100 135 Q105 137 109 133 Q113 129 105 125.5 Q97 122 85 119 L83 93 Z" /><glyph glyph-name="uni638C" unicode="&#x638c;" d="M117 79 Q93 75 80.5 76 Q68 77 88 81 Q108 85 127 90.5 Q146 96 149.5 99.5 Q153 103 165 95 Q177 87 166 86.5 Q155 86 128 80 Q132 75 134 66 Q141 67 149.5 69.5 Q158 72 165.5 66.5 Q173 61 163 59.5 Q153 58 136 56 Q137 45 137 41 L182 47 Q200 50 208.5 40 Q217 30 197.5 33 Q178 36 138 32 Q139 9 136.5 -3.5 Q134 -16 124.5 -23.5 Q115 -31 112.5 -23 Q110 -15 97 -7.5 Q84 0 93 -1.5 Q102 -3 109.5 -4 Q117 -5 120 -2 Q123 1 124 9.5 Q125 18 125 30 Q77 24 65 21 Q53 18 45 24 Q37 30 44 30 Q52 30 72 32.5 Q92 35 125 39 Q125 48 124 55 Q110 53 100.5 52 Q91 51 83.5 55 Q76 59 87 59.5 Q98 60 122 64 Q120 74 117 79 ZM131 157 Q190 164 198.5 167 Q207 170 216 166 Q225 162 234.5 153.5 Q244 145 231 143.5 Q218 142 205 132.5 Q192 123 200.5 137 Q209 151 205.5 154 Q202 157 185.5 155.5 Q169 154 143.5 150.5 Q118 147 92 144 Q66 141 52 139 Q50 117 44.5 105.5 Q39 94 33.5 102 Q28 110 34 127.5 Q40 145 40 154 Q40 164 45 158 Q50 152 52 146 Q99 151 120 155 Q121 180 119.5 188.5 Q118 197 115 202.5 Q112 208 126 204 Q140 200 136.5 193 Q133 186 131 157 ZM150 114 Q156 106 149 105.5 Q142 105 102 100 Q98 88 93 102.5 Q88 117 82.5 124 Q77 131 84 130 Q91 129 111.5 132 Q132 135 138 138 Q144 141 150 138.5 Q156 136 161 132.5 Q166 129 159.5 125 Q153 121 150 114 ZM98 123 Q100 114 102 106 Q129 110 140 112 Q141 125 140 127.5 Q139 130 126 128 Q113 126 98 123 ZM182 190 Q193 184 184.5 182.5 Q176 181 169.5 177.5 Q163 174 151.5 169 Q140 164 151 174.5 Q162 185 163 190.5 Q164 196 168 196 Q172 196 182 190 ZM75 177 Q71 183 70.5 186.5 Q70 190 80.5 186 Q91 182 95 175 Q99 168 95.5 162.5 Q92 157 85.5 164 Q79 171 75 177 Z" /><glyph glyph-name="uni6469" unicode="&#x6469;" d="M165 177 Q182 172 180 168 Q178 164 178 155 Q186 157 192 159 Q198 161 203.5 158 Q209 155 201 151.5 Q193 148 178 146 L178 142 Q186 136 198 129.5 Q210 123 227 118.5 Q244 114 233 113 Q222 112 211.5 111.5 Q201 111 195 118 Q189 125 178 136 Q178 122 177 110.5 Q176 99 170.5 104.5 Q165 110 166 114.5 Q167 119 168 137 Q161 126 153.5 118 Q146 110 136 105 Q126 100 134.5 109 Q143 118 149 126 Q155 134 159 143 Q153 141 149 141 Q146 141 142 143.5 Q138 146 146 147.5 Q154 149 167 152 Q168 163 161 176 Q121 170 81 166 Q73 116 65.5 88.5 Q58 61 47.5 37.5 Q37 14 20 0 Q3 -14 19.5 8 Q36 30 47 65.5 Q58 101 63.5 132.5 Q69 164 64 170.5 Q59 177 66 176.5 Q73 176 77.5 174.5 Q82 173 97.5 175 Q113 177 139 182 Q131 189 124.5 198 Q118 207 129 204.5 Q140 202 144.5 196.5 Q149 191 144 183 Q161 188 171.5 190.5 Q182 193 189 189.5 Q196 186 190.5 183 Q185 180 165 177 ZM147 84 Q151 79 154 72 Q162 74 169.5 75.5 Q177 77 182.5 73 Q188 69 180.5 67.5 Q173 66 156 63 Q157 56 157 47 Q185 51 198.5 54 Q212 57 222.5 48.5 Q233 40 212 41.5 Q191 43 157 38 Q158 10 154.5 -2 Q151 -14 142.5 -21 Q134 -28 131 -21 Q128 -14 115.5 -8 Q103 -2 116.5 -3.5 Q130 -5 134.5 -3.5 Q139 -2 142 7.5 Q145 17 145 37 Q101 30 88 27 Q75 24 67 30 Q59 36 68 36 Q77 36 98.5 38.5 Q120 41 145 45 Q145 51 144 61 Q129 58 123.5 57 Q118 56 110 59 Q102 62 112 63 Q122 64 143 69 Q142 76 139 82 Q118 77 109 77.5 Q100 78 113.5 82.5 Q127 87 139.5 92.5 Q152 98 155 102 Q158 106 164.5 103 Q171 100 175.5 96.5 Q180 93 171.5 91.5 Q163 90 147 84 ZM127 147 Q131 148 135 145 Q139 142 133.5 140 Q128 138 119 136 L119 127 Q125 127 130.5 125.5 Q136 124 135.5 118 Q135 112 129.5 115 Q124 118 119 122 Q119 110 116.5 100 Q114 90 111 92 Q108 94 108 100 Q108 107 109 119 Q97 104 84.5 98 Q72 92 83 102 Q94 112 105 134 Q95 133 88 135 Q81 137 91 139 Q101 141 109 143 Q109 155 104.5 161 Q100 167 106.5 166 Q113 165 117 163 Q121 161 120 157 Q119 153 119 145 L127 147 Z" /><glyph glyph-name="uni6570" unicode="&#x6570;" d="M164 52 Q171 65 172.5 79.5 Q174 94 173 109 Q165 108 155 109 Q143 95 133 89 Q123 83 135.5 98.5 Q148 114 156.5 139.5 Q165 165 164 171 Q163 177 162.5 181.5 Q162 186 174.5 179.5 Q187 173 182.5 167 Q178 161 173.5 148.5 Q169 136 157 114 Q181 119 196.5 126.5 Q212 134 220.5 128.5 Q229 123 218 119 Q207 115 177 109 Q192 104 188.5 94 Q185 84 182.5 71 Q180 58 173 41 Q182 30 193.5 20.5 Q205 11 217.5 6 Q230 1 239 -2.5 Q248 -6 229.5 -7.5 Q211 -9 201.5 -7.5 Q192 -6 187.5 1 Q183 8 165 32 Q156 22 147 16 Q138 10 127 7 Q116 4 126.5 10.5 Q137 17 145 25 Q153 33 159 42 Q152 54 145.5 62.5 Q139 71 134.5 76 Q130 81 135.5 81.5 Q141 82 144.5 78 Q148 74 164 52 ZM103 64 Q105 70 104.5 74.5 Q104 79 110 75 Q116 71 118.5 68 Q121 65 118.5 60 Q116 55 112 44.5 Q108 34 101 22 Q108 17 113.5 12 Q119 7 117 -2.5 Q115 -12 108.5 -4 Q102 4 93 11 Q77 -1 63.5 -6 Q50 -11 36.5 -12 Q23 -13 34 -8.5 Q45 -4 58 2 Q71 8 82 19 Q70 28 65.5 30 Q61 32 63.5 36 Q66 40 68 50 Q42 47 34.5 42.5 Q27 38 17 46 Q7 54 20 53.5 Q33 53 71 59 Q74 72 72 79.5 Q70 87 81 81.5 Q92 76 90 73 Q88 70 83 61 L103 64 ZM115 137 Q125 139 129 135.5 Q133 132 124 129 Q115 126 94 123 L94 115 Q111 113 119 107.5 Q127 102 124.5 94 Q122 86 112.5 96.5 Q103 107 94 112 Q94 100 92 91.5 Q90 83 85.5 90.5 Q81 98 82.5 104 Q84 110 83 118 Q59 87 39 77.5 Q19 68 30.5 77 Q42 86 54.5 99 Q67 112 72 122 Q58 117 52.5 116 Q47 115 39 120.5 Q31 126 42 125.5 Q53 125 84 131 L84 167 Q84 188 80.5 193.5 Q77 199 79.5 199.5 Q82 200 92 195.5 Q102 191 98.5 185 Q95 179 95 133 L115 137 ZM90 27 Q98 37 103 57 L80 53 Q73 37 73.5 35 Q74 33 77.5 32 Q81 31 90 27 ZM130 171 Q138 166 132 163.5 Q126 161 110.5 149.5 Q95 138 104 149.5 Q113 161 116 169.5 Q119 178 121 177 Q123 176 130 171 ZM62 144 Q54 155 51.5 160 Q49 165 61.5 162 Q74 159 72.5 146.5 Q71 134 62 144 Z" /><glyph glyph-name="uni65E5" unicode="&#x65e5;" d="M86 29 Q81 7 74.5 19.5 Q68 32 72.5 48.5 Q77 65 76.5 97.5 Q76 130 74 141 Q72 152 68 160 Q64 168 71.5 165.5 Q79 163 85 162.5 Q91 162 104.5 164 Q118 166 132 169.5 Q146 173 152 177.5 Q158 182 168 178 Q178 174 185 168.5 Q192 163 185.5 152.5 Q179 142 180 99.5 Q181 57 181.5 38 Q182 19 174.5 4.5 Q167 -10 163 6 Q159 22 156.5 27.5 Q154 33 145.5 33.5 Q137 34 116.5 31 Q96 28 86 29 ZM89 94 Q87 65 86 36 Q111 37 127.5 42.5 Q144 48 150 40.5 Q156 33 160.5 34.5 Q165 36 165 76 Q165 116 164 139 Q163 162 155.5 164 Q148 166 86 153 Q89 127 89 100 Q100 100 116 106.5 Q132 113 143 106.5 Q154 100 126.5 95 Q99 90 89 94 Z" /><glyph glyph-name="uni65F6" unicode="&#x65f6;" d="M76 34 Q62 33 46 30 Q44 8 37 21 Q30 34 33 45 Q36 56 36.5 99 Q37 142 31.5 153 Q26 164 33.5 161 Q41 158 55.5 160 Q70 162 74 165 Q78 168 90.5 162.5 Q103 157 99.5 152.5 Q96 148 93 138 Q90 128 91.5 84 Q93 40 89 26 Q85 12 82 14.5 Q79 17 76 34 ZM183 130 Q203 132 215 134.5 Q227 137 236.5 128.5 Q246 120 229.5 120.5 Q213 121 183 118 Q183 79 185 42 Q187 5 178 -11 Q169 -27 164.5 -15 Q160 -3 149 8 Q138 19 144 17 Q150 15 158 12 Q166 9 168 14.5 Q170 20 170.5 33.5 Q171 47 171 117 Q133 111 123 109 Q113 107 104 114.5 Q95 122 104 121.5 Q113 121 130 122.5 Q147 124 170 127 Q170 178 163 189 Q156 200 164 198.5 Q172 197 180.5 193.5 Q189 190 185.5 180.5 Q182 171 183 130 ZM46 39 Q63 42 76 42 Q80 51 80 68 L80 116 Q80 147 77 152.5 Q74 158 47 150 L47 100 Q54 103 61.5 105 Q69 107 72.5 102.5 Q76 98 67 95.5 Q58 93 46 93 L46 39 ZM118 79 Q110 90 125 88 Q140 86 144.5 78.5 Q149 71 147 63.5 Q145 56 136 62.5 Q127 69 118 79 Z" /><glyph glyph-name="uni6614" unicode="&#x6614;" d="M145 3 Q130 3 117.5 1 Q105 -1 92 2 Q87 -22 81 -11 Q75 0 77 6.5 Q79 13 79 36 Q79 60 75 67 Q71 74 76.5 72.5 Q82 71 109 74.5 Q136 78 145.5 81.5 Q155 85 159.5 83.5 Q164 82 172 76.5 Q180 71 177.5 67.5 Q175 64 174 50.5 Q173 37 174.5 18 Q176 -1 167 -16.5 Q158 -32 154 -19.5 Q150 -7 145 3 ZM103 149 Q124 151 146 155 Q148 171 149.5 187 Q151 203 149 207 Q147 211 161 205.5 Q175 200 170.5 195 Q166 190 159 157 Q169 158 176.5 160.5 Q184 163 190.5 157 Q197 151 183.5 148.5 Q170 146 156 144 Q153 127 150 113 Q188 116 199.5 117.5 Q211 119 219.5 118.5 Q228 118 235.5 112 Q243 106 237.5 104 Q232 102 208 102.5 Q184 103 143.5 100.5 Q103 98 75 94 Q47 90 39.5 88 Q32 86 22.5 92.5 Q13 99 19.5 99.5 Q26 100 43 101.5 Q60 103 93 108 Q93 120 91 135 Q80 133 76.5 134 Q73 135 65.5 138.5 Q58 142 66 142.5 Q74 143 90 146 Q90 155 87 166.5 Q84 178 81.5 183 Q79 188 81.5 188.5 Q84 189 95 186.5 Q106 184 104.5 175.5 Q103 167 103 149 ZM91 7 Q123 11 134 12 Q145 13 152 7.5 Q159 2 159.5 25 Q160 48 157.5 60.5 Q155 73 145 72 Q135 71 90 65 L90 39 Q105 42 118.5 45.5 Q132 49 138 44.5 Q144 40 130.5 36 Q117 32 91 32 L91 7 ZM104 109 Q120 110 138 112 L143 142 Q122 139 104 137 L104 109 Z" /><glyph glyph-name="uni661F" unicode="&#x661f;" d="M164 125 Q149 124 124 120 Q144 113 141.5 108 Q139 103 138 87 Q155 90 166.5 92.5 Q178 95 185.5 89 Q193 83 176 80.5 Q159 78 138 74 Q137 60 137 50 Q155 53 163.5 54.5 Q172 56 179.5 49.5 Q187 43 175.5 42 Q164 41 137 38 L136 10 Q198 16 211.5 17.5 Q225 19 233.5 11.5 Q242 4 240 1 Q238 -2 224.5 0 Q211 2 184.5 1.5 Q158 1 137 -1 Q116 -3 85 -7 Q54 -11 45.5 -12.5 Q37 -14 30.5 -10.5 Q24 -7 21 -3 Q18 1 28 1 Q39 1 63 3 Q87 5 125 9 L125 36 Q109 33 102 32 Q95 31 85.5 36.5 Q76 42 89 42.5 Q102 43 125 47 L125 73 Q102 69 94 68 Q86 67 76 76 Q68 66 60 60.5 Q52 55 42 52.5 Q32 50 43.5 58.5 Q55 67 65 81 Q75 95 74 101 Q73 107 79 105 Q85 103 91 98.5 Q97 94 92 91 Q87 88 80 78 Q108 80 124 84 Q124 105 120 120 L104 118 Q101 106 96.5 117 Q92 128 85 145.5 Q78 163 71.5 170 Q65 177 71 177.5 Q77 178 83 177 Q89 176 124.5 182 Q160 188 168.5 190.5 Q177 193 184.5 189.5 Q192 186 200 180 Q208 174 202.5 170.5 Q197 167 187 149 Q177 131 172 124 Q167 117 164 125 ZM99 144 Q102 131 104 125 Q148 132 164 134 Q173 155 175 166.5 Q177 178 173 180 Q169 182 151.5 179.5 Q134 177 92 170 Q94 164 97 151 Q116 155 132 160 Q148 165 153.5 159.5 Q159 154 138 149.5 Q117 145 99 144 Z" /><glyph glyph-name="uni6668" unicode="&#x6668;" d="M78 68 Q91 68 105.5 70 Q120 72 143.5 76.5 Q167 81 176.5 84 Q186 87 195 81 Q204 75 184 72 Q164 69 112 63 Q132 50 149 41 Q169 52 170.5 60 Q172 68 178 65 Q184 62 189 56 Q194 50 185 49 Q176 48 152 38 Q176 22 192 15 Q208 8 230 4 Q252 0 237.5 -3.5 Q223 -7 207 -8 Q191 -9 181.5 -1 Q172 7 154 22.5 Q136 38 106 62 Q99 61 91 60 Q105 52 101.5 44 Q98 36 97.5 19.5 Q97 3 102 6.5 Q107 10 127 18 Q147 26 122 8 Q97 -10 89 -19 Q81 -28 79 -21 Q77 -14 77 -10 Q77 -6 81.5 0.5 Q86 7 87.5 32.5 Q89 58 84.5 59 Q80 60 77 64 Q64 26 48 8.5 Q32 -9 17.5 -17 Q3 -25 20.5 -7.5 Q38 10 51 33.5 Q64 57 68.5 85 Q73 113 70.5 119 Q68 125 73.5 124 Q79 123 82.5 119.5 Q86 116 110.5 120.5 Q135 125 153.5 130 Q172 135 180.5 130.5 Q189 126 179.5 122.5 Q170 119 142.5 115 Q115 111 85 109 Q84 90 78 68 ZM160 147 Q129 141 98 137 Q97 126 93.5 131.5 Q90 137 87 144 Q84 151 79.5 164 Q75 177 69.5 183.5 Q64 190 71 190 Q78 190 82 189 Q86 188 108 190.5 Q130 193 145 196 Q160 199 165 201.5 Q170 204 176 202 Q182 200 189 196 Q196 192 191 187 Q186 182 183 172.5 Q180 163 176 154.5 Q172 146 167.5 141.5 Q163 137 160 147 ZM94 166 Q120 171 131 174.5 Q142 178 148 173.5 Q154 169 132 164 Q110 159 95 159 L98 144 Q119 148 133 150 Q147 152 162 153 Q170 179 168 186 Q166 193 153.5 191.5 Q141 190 91 180 L94 166 ZM149 104 Q157 106 163 101.5 Q169 97 158 94 Q147 91 129.5 87.5 Q112 84 103.5 88.5 Q95 93 104.5 94.5 Q114 96 127.5 99 Q141 102 149 104 Z" /><glyph glyph-name="uni66AE" unicode="&#x66ae;" d="M145 -2 Q111 -5 98 -5 Q95 -19 90.5 -12.5 Q86 -6 86 3 Q86 12 85.5 25 Q85 38 82 43 Q81 45 81 46 Q69 31 59 24 Q40 11 21 6.5 Q2 2 20.5 10.5 Q39 19 58.5 38 Q78 57 87 75 Q66 72 56.5 70.5 Q47 69 39.5 73.5 Q32 78 41 78 Q51 78 93 85 Q95 95 94 100 Q85 96 82 105 Q79 114 75 124 Q71 134 67.5 138.5 Q64 143 68 143 Q73 143 78 142 Q83 141 98 144 L130 150 Q148 154 151.5 156 Q155 158 162.5 155 Q170 152 176 148 Q182 144 176 139.5 Q170 135 164 122 Q158 109 155 105.5 Q152 102 149 108 Q124 103 107 100 Q112 95 110.5 93.5 Q109 92 107 87 Q159 94 172.5 97 Q186 100 197 95 Q208 90 193.5 88 Q179 86 142 82 Q163 61 181.5 48.5 Q200 36 216.5 30 Q233 24 241 21 Q249 18 232 16.5 Q215 15 204 16.5 Q193 18 187 25 Q181 32 167 46.5 Q153 61 134 81 Q117 78 103 76 Q93 60 83 48 Q87 49 91 48.5 Q95 48 114.5 51.5 Q134 55 139.5 57.5 Q145 60 151 57.5 Q157 55 161.5 51 Q166 47 163 43 Q160 39 160.5 26.5 Q161 14 159.5 1.5 Q158 -11 154.5 -17.5 Q151 -24 148.5 -16 Q146 -8 145 -2 ZM145 179 Q150 197 148 203 Q146 209 153 206 L167 201 Q174 199 168.5 194.5 Q163 190 160 182 Q179 185 187 185 Q195 185 201 179 Q207 173 190 173.5 Q173 174 155 173 Q146 164 139 158.5 Q132 153 134.5 159 Q137 165 140 171 Q127 169 109 167 Q109 153 105.5 152.5 Q102 152 98 165 Q75 161 69.5 159 Q64 157 54.5 162.5 Q45 168 54.5 167.5 Q64 167 95 172 Q86 189 81.5 193 Q77 197 84 197 Q92 197 97.5 195.5 Q103 194 104 190.5 Q105 187 108 175 Q126 177 145 179 ZM97 1 Q119 4 127.5 6 Q136 8 146 4 Q147 14 147.5 23.5 Q148 33 147 40.5 Q146 48 141 48 Q136 48 96 42 L96 26 Q109 28 119.5 30.5 Q130 33 134 29.5 Q138 26 127.5 22 Q117 18 97 19 L97 1 ZM89 118 Q90 111 91 106 Q106 108 149 116 Q156 141 153 144.5 Q150 148 141 146.5 Q132 145 85 136 Q86 129 87 124 Q107 128 118 131.5 Q129 135 134.5 132 Q140 129 128.5 124.5 Q117 120 89 118 Z" /><glyph glyph-name="uni6709" unicode="&#x6709;" d="M108 82 Q119 83 132.5 86.5 Q146 90 149.5 85 Q153 80 140 77.5 Q127 75 108 75 Q108 62 106 48 Q124 49 134.5 52.5 Q145 56 150 50.5 Q155 45 137 42 Q119 39 106 43 Q104 15 97.5 1 Q91 -13 86.5 -4 Q82 5 86.5 15 Q91 25 93.5 38 Q96 51 97.5 74.5 Q99 98 98 107 Q82 85 66.5 70 Q51 55 31 45 Q11 35 30 50 Q49 65 70 90.5 Q91 116 108 150 Q66 145 55.5 142.5 Q45 140 36 146 Q27 152 31.5 152.5 Q36 153 52 153.5 Q68 154 111 160 Q123 190 118.5 198 Q114 206 117 206 Q121 206 132.5 202 Q144 198 140.5 193.5 Q137 189 134 181 Q131 173 126 161 Q146 164 165.5 167 Q185 170 196.5 171.5 Q208 173 218.5 171.5 Q229 170 234 164 Q239 158 233 157 Q227 156 211 157 Q195 158 173.5 156.5 Q152 155 123 151 Q114 131 105 118 Q109 113 127.5 117.5 Q146 122 152 124 Q158 126 165 124 Q172 122 177.5 119 Q183 116 179.5 105 Q176 94 177 80.5 Q178 67 179 49 Q180 31 181 16.5 Q182 2 178 -7.5 Q174 -17 167.5 -23 Q161 -29 159 -20.5 Q157 -12 147 -1.5 Q137 9 145.5 6.5 Q154 4 159.5 3.5 Q165 3 165 29 Q165 56 163 84 Q161 112 154 114 Q147 116 108 108 L108 82 Z" /><glyph glyph-name="uni6B64" unicode="&#x6b64;" d="M148 95 Q165 106 175.5 118.5 Q186 131 186 136 Q186 142 193.5 138 Q201 134 206 127.5 Q211 121 205.5 120 Q200 119 187 111.5 Q174 104 148 88 Q146 53 148.5 38.5 Q151 24 161 18.5 Q171 13 190.5 14 Q210 15 217 23.5 Q224 32 227 50 Q230 68 230.5 48 Q231 28 236.5 20 Q242 12 229.5 5.5 Q217 -1 186 -1 Q156 -1 146.5 10.5 Q137 22 136 41 Q135 60 136.5 77 Q138 94 138 133 Q138 172 131.5 182.5 Q125 193 135 190.5 Q145 188 152 183 Q159 178 156 173.5 Q153 169 151 152.5 Q149 136 148 95 ZM90 105 Q100 107 109.5 111 Q119 115 125.5 110.5 Q132 106 118 100.5 Q104 95 90 97 Q89 68 89 40 Q106 48 115 51.5 Q124 55 124.5 53 Q125 51 114.5 44.5 Q104 38 93.5 32.5 Q83 27 64 15.5 Q45 4 40.5 -0.5 Q36 -5 25.5 4.5 Q15 14 24 14 Q33 14 45 19 Q45 43 43.5 59 Q42 75 40 82.5 Q38 90 33 96.5 Q28 103 38 101 Q48 99 54 96 Q60 93 57 86 Q54 79 55 24 Q68 30 78 36 Q78 111 75.5 131.5 Q73 152 68.5 160 Q64 168 72 166.5 Q80 165 88 161 Q96 157 92.5 149 Q89 141 90 105 Z" /><glyph glyph-name="uni6BCF" unicode="&#x6bcf;" d="M176 95 Q201 97 217.5 99 Q234 101 242 91.5 Q250 82 240 82.5 Q230 83 215.5 83.5 Q201 84 175 84 Q174 58 172 43 Q181 43 195.5 40.5 Q210 38 212.5 28.5 Q215 19 203 23 Q191 27 171 31 Q165 -2 152.5 -16 Q140 -30 135 -20 Q130 -10 118.5 -2.5 Q107 5 122.5 2 Q138 -1 144 3.5 Q150 8 154 33 Q98 36 81.5 33 Q65 30 57.5 25.5 Q50 21 47 30.5 Q44 40 54 44 Q64 48 79 77 Q43 74 33.5 72 Q24 70 15 77.5 Q6 85 20 84.5 Q34 84 84 88 Q97 122 93 132 Q89 142 93.5 141.5 Q98 141 103 138.5 Q108 136 125 138 Q142 140 150 145 Q158 150 165.5 146.5 Q173 143 179 138 Q185 133 180.5 127 Q176 121 176 95 ZM93 78 Q79 50 75 44 Q119 45 156 44 Q158 56 160 83 L93 78 ZM160 94 Q161 129 157.5 131.5 Q154 134 142.5 132 Q131 130 109 128 Q104 111 97 89 Q128 91 160 94 ZM113 175 Q148 177 166 183.5 Q184 190 193 185 Q202 180 192 176 Q182 172 162.5 169 Q143 166 131.5 165.5 Q120 165 110 170 Q82 142 68 136.5 Q54 131 66 141.5 Q78 152 94 172.5 Q110 193 109 201 Q108 209 115.5 206 Q123 203 127.5 199 Q132 195 127.5 192 Q123 189 113 175 ZM116 71 Q113 78 123 74 Q133 70 134 64 Q135 58 132 53 Q129 48 124.5 56 Q120 64 116 71 ZM119 116 Q116 123 124 120.5 Q132 118 135.5 113.5 Q139 109 136.5 102 Q134 95 128 102.5 Q122 110 119 116 Z" /><glyph glyph-name="uni6BD5" unicode="&#x6bd5;" d="M135 68 Q161 71 177.5 73 Q194 75 205 76.5 Q216 78 223.5 76 Q231 74 237 66 Q243 58 216.5 60.5 Q190 63 135 58 Q135 16 133 -5 Q131 -26 127.5 -27.5 Q124 -29 122.5 -10.5 Q121 8 121 56 Q109 55 87 51 Q65 47 53 44 Q41 41 32 48.5 Q23 56 28.5 56.5 Q34 57 50.5 58 Q67 59 121 66 Q121 75 120.5 82.5 Q120 90 115.5 96.5 Q111 103 119 102 Q127 101 134 97.5 Q141 94 138.5 91.5 Q136 89 135 68 ZM149 161 Q163 169 173 177.5 Q183 186 182.5 191 Q182 196 187.5 193 Q193 190 200.5 184.5 Q208 179 198.5 175.5 Q189 172 148 155 Q147 136 149 125 Q151 114 168 114 Q185 114 192.5 119 Q200 124 202.5 138.5 Q205 153 206 138.5 Q207 124 212 117.5 Q217 111 208 105.5 Q199 100 177.5 99.5 Q156 99 146 106 Q136 113 136 129 Q136 146 137 168.5 Q138 191 132.5 199.5 Q127 208 145 202 Q157 197 154 193 Q151 189 149 161 ZM78 161 Q98 166 105 169 Q112 172 120.5 167 Q129 162 110 156 Q91 150 78 154 Q77 136 76.5 126.5 Q76 117 81 118 Q86 119 109.5 129.5 Q133 140 118.5 129 Q104 118 85 104 Q66 90 62.5 86 Q59 82 55.5 93 Q52 104 56 108.5 Q60 113 63.5 123 Q67 133 67 156 Q67 179 60 188 Q53 197 70 194 Q84 188 81.5 183.5 Q79 179 78 161 Z" /><glyph glyph-name="uni6C99" unicode="&#x6c99;" d="M191 109 Q204 101 200.5 96.5 Q197 92 186 69.5 Q175 47 156.5 29 Q138 11 115 0.5 Q92 -10 74 -11.5 Q56 -13 75 -6 Q94 1 112 11.5 Q130 22 141.5 33 Q153 44 161.5 57 Q170 70 175.5 84.5 Q181 99 179.5 108.5 Q178 118 191 109 ZM142 197 Q152 195 158 191.5 Q164 188 161 182 Q158 176 158 159 L158 125 Q158 107 157.5 98 Q157 89 153 79.5 Q149 70 144 82.5 Q139 95 142 103.5 Q145 112 145.5 145 Q146 178 139.5 188.5 Q133 199 142 197 ZM62 49 Q55 29 54.5 17 Q54 5 42.5 21 Q31 37 37 39 Q43 41 49 50.5 Q55 60 67.5 80.5 Q80 101 75 85.5 Q70 70 62 49 ZM112 126 Q118 142 119.5 122.5 Q121 103 110.5 86.5 Q100 70 95.5 81 Q91 92 98.5 101 Q106 110 112 126 ZM211 143 Q222 141 228 133.5 Q234 126 231.5 120.5 Q229 115 215 121.5 Q201 128 190 135 Q179 142 189.5 143.5 Q200 145 211 143 ZM38 107 Q31 114 28.5 119.5 Q26 125 37.5 123.5 Q49 122 54.5 117 Q60 112 59 103.5 Q58 95 52 97.5 Q46 100 38 107 ZM59 160 Q53 166 50.5 171.5 Q48 177 59 175 Q70 173 76 168 Q82 163 80.5 155 Q79 147 72 150.5 Q65 154 59 160 Z" /><glyph glyph-name="uni6CA1" unicode="&#x6ca1;" d="M162 36 Q180 21 199 12 Q218 3 236 0 Q254 -3 240 -6.5 Q226 -10 208 -11 Q190 -12 181 -3.5 Q172 5 153 26 Q137 13 121.5 8.5 Q106 4 93.5 5 Q81 6 92 8.5 Q103 11 118 18.5 Q133 26 143 36 Q137 44 125.5 56.5 Q114 69 107 72.5 Q100 76 104 77.5 Q108 79 112.5 78.5 Q117 78 128.5 67 Q140 56 151 45 Q161 62 163 75.5 Q165 89 161.5 88.5 Q158 88 151.5 86 Q145 84 137.5 81.5 Q130 79 122.5 83 Q115 87 123.5 88 Q132 89 143 93 Q154 97 158.5 100.5 Q163 104 169.5 102.5 Q176 101 183 97 Q190 93 185.5 88 Q181 83 175.5 66.5 Q170 50 162 36 ZM135 166 Q135 136 131 123 Q127 110 111.5 100 Q96 90 108 104.5 Q120 119 121.5 140 Q123 161 117.5 169 Q112 177 118 177 Q124 177 130.5 175 Q137 173 146 175 Q155 177 160.5 182.5 Q166 188 170 188 Q174 188 183 183.5 Q192 179 184 173.5 Q176 168 174 155 Q172 142 174 135 Q176 128 187.5 128.5 Q199 129 205 131 Q211 133 217 128.5 Q223 124 217 120 Q211 116 196.5 115 Q182 114 172.5 116.5 Q163 119 161.5 128.5 Q160 138 160.5 148 Q161 158 161.5 164 Q162 170 157.5 169.5 Q153 169 135 166 ZM66 38 Q57 18 55 5 Q53 -8 42 8.5 Q31 25 38.5 28 Q46 31 55.5 44 Q65 57 77 76.5 Q89 96 82.5 77 Q76 58 66 38 ZM61 171 Q54 182 66.5 179.5 Q79 177 85.5 171 Q92 165 89 155.5 Q86 146 77.5 153 Q69 160 61 171 ZM52 103 Q42 112 36.5 121.5 Q31 131 40.5 129 Q50 127 58.5 122 Q67 117 64.5 105.5 Q62 94 52 103 Z" /><glyph glyph-name="uni6CD5" unicode="&#x6cd5;" d="M157 139 Q171 142 180 144.5 Q189 147 195.5 142 Q202 137 189 132.5 Q176 128 157 125 L156 90 Q197 96 209.5 98 Q222 100 230.5 97.5 Q239 95 242.5 89 Q246 83 233.5 83.5 Q221 84 200.5 82.5 Q180 81 143 77 Q154 66 150 63 Q146 60 138.5 51.5 Q131 43 126.5 37 Q122 31 128.5 32 Q135 33 183 38 Q177 49 172.5 57 Q168 65 175 62.5 Q182 60 191 52 Q200 44 207 33 Q214 22 211 10.5 Q208 -1 202 5.5 Q196 12 186 31 Q135 22 119 16.5 Q103 11 95 5.5 Q87 0 87 12 Q87 25 94.5 27.5 Q102 30 107.5 34 Q113 38 122.5 49.5 Q132 61 134 76 Q112 72 103 69.5 Q94 67 85 73.5 Q76 80 88 80 Q101 80 143 89 L143 122 Q127 120 117.5 124 Q108 128 118 130 Q128 132 143 136 Q143 154 142.5 169.5 Q142 185 137.5 193.5 Q133 202 142 200.5 Q151 199 159 193.5 Q167 188 162.5 181 Q158 174 157 139 ZM69 68 Q55 36 52.5 20 Q50 4 43 12 Q36 20 32.5 29.5 Q29 39 35 41 Q41 43 48.5 52 Q56 61 72 84.5 Q88 108 69 68 ZM75 151 Q65 159 61.5 167 Q58 175 66.5 174.5 Q75 174 83 167 Q91 160 89.5 149 Q88 138 75 151 ZM42 109 Q35 117 32.5 123.5 Q30 130 42.5 127 Q55 124 59 117 Q63 110 59.5 103 Q56 96 42 109 Z" /><glyph glyph-name="uni72F1" unicode="&#x72f1;" d="M177 108 Q187 111 197.5 115 Q208 119 214 113.5 Q220 108 210.5 105 Q201 102 191 99.5 Q181 97 176 96 Q184 78 194.5 60 Q205 42 216.5 30.5 Q228 19 241 12 Q254 5 246 4 Q238 3 223.5 5 Q209 7 204 16 Q199 25 190.5 46.5 Q182 68 174 85 Q168 49 155 32 Q142 15 123.5 6.5 Q105 -2 122 11 Q139 24 149 43.5 Q159 63 162 93 Q153 92 147 92 Q141 92 135 94.5 Q129 97 135.5 98 Q142 99 164 105 Q167 126 166.5 151 Q166 176 161.5 184 Q157 192 165.5 190.5 Q174 189 179.5 185.5 Q185 182 182.5 178 Q180 174 179.5 156 Q179 138 177 108 ZM77 136 Q80 114 80.5 95.5 Q81 77 81 63 Q81 50 78 29 Q75 8 67 -2.5 Q59 -13 56 -4 Q53 5 42.5 13.5 Q32 22 40 20 Q48 18 55.5 16.5 Q63 15 66.5 42 Q70 69 69 88 Q55 71 39 58 Q23 45 13 42 Q3 39 12 46 Q21 53 36 68 Q51 83 68 108 Q68 117 67 126 Q47 114 34 109.5 Q21 105 35.5 115 Q50 125 63 139 Q57 153 46.5 163 Q36 173 51.5 166.5 Q67 160 73 147 Q90 169 88.5 178 Q87 187 93.5 184 Q100 181 105 176.5 Q110 172 107 169.5 Q104 167 98.5 160 Q93 153 77 136 ZM105 96 Q98 95 91.5 97.5 Q85 100 93.5 102 Q102 104 107.5 106.5 Q113 109 117.5 113 Q122 117 129.5 112 Q137 107 130.5 101.5 Q124 96 120 82 Q116 68 114.5 57 Q113 46 118 50 Q123 54 136 61.5 Q149 69 140 60 Q131 51 122 41 Q113 31 107 19.5 Q101 8 96.5 19 Q92 30 95.5 34.5 Q99 39 102.5 48.5 Q106 58 109 78 Q112 98 105 96 ZM205 141 Q196 152 193.5 158.5 Q191 165 206 159.5 Q221 154 217.5 142 Q214 130 205 141 ZM129 163 Q138 158 135.5 146.5 Q133 135 121.5 150.5 Q110 166 115.5 167 Q121 168 129 163 Z" /><glyph glyph-name="uni7384" unicode="&#x7384;" d="M124 132 Q133 125 136.5 121 Q140 117 133.5 112 Q127 107 114.5 93 Q102 79 102 77 Q102 75 108.5 74.5 Q115 74 136 73 Q142 79 148 86.5 Q154 94 154 99 Q154 105 158.5 104.5 Q163 104 171.5 97 Q180 90 176 87.5 Q172 85 161.5 77 Q151 69 128 47.5 Q105 26 103.5 23.5 Q102 21 107.5 21.5 Q113 22 163 28 Q156 42 154 48 Q152 54 165.5 44 Q179 34 188 21 Q197 8 191 -5.5 Q185 -19 178 -5 Q171 9 165 22 Q136 16 117 11 Q98 6 87 0.5 Q76 -5 72 -5.5 Q68 -6 68.5 5.5 Q69 17 80.5 21 Q92 25 129 66 Q94 64 85 60 Q76 56 75 65 Q74 74 76.5 76 Q79 78 89 82.5 Q99 87 109.5 104.5 Q120 122 116 130 Q67 126 55.5 123 Q44 120 36 126 Q28 132 28.5 133.5 Q29 135 39 135 Q50 135 73 136.5 Q96 138 127.5 141 Q159 144 177 147 Q195 150 205.5 151 Q216 152 222 151 Q228 150 234 145.5 Q240 141 239 138 Q238 135 223.5 136 Q209 137 184.5 135.5 Q160 134 124 132 ZM120 174 Q112 183 110 188 Q108 193 123 189.5 Q138 186 144 179 Q150 172 148.5 162 Q147 152 138 158.5 Q129 165 120 174 Z" /><glyph glyph-name="uni7528" unicode="&#x7528;" d="M129 171 Q143 164 139.5 157.5 Q136 151 136 130 Q147 132 151 132 Q156 132 160.5 128 Q165 124 153.5 121 Q142 118 136 116 L135 87 Q151 91 157.5 91.5 Q164 92 167.5 87.5 Q171 83 162 80 Q153 77 135 72 Q135 47 132 24 Q129 1 126 0.5 Q123 0 122 13 Q121 26 122 70 Q110 68 103 68 Q97 68 89.5 71 Q82 74 89.5 75.5 Q97 77 123 84 L123 114 Q109 111 100 114.5 Q91 118 98 119.5 Q105 121 123 125 Q123 149 120 169 Q100 167 84 165 Q83 94 80.5 73 Q78 52 71.5 30 Q65 8 47 -4.5 Q29 -17 42.5 -0.5 Q56 16 63 48.5 Q70 81 70 103 L70 144 Q70 163 64.5 170 Q59 177 71 174 Q83 171 103 174 Q123 177 146.5 181 Q170 185 175.5 187.5 Q181 190 191 185.5 Q201 181 208 175.5 Q215 170 211 164 Q207 158 206 149 Q205 140 205 111 Q205 82 206.5 55 Q208 28 209.5 17 Q211 6 202 -9.5 Q193 -25 188.5 -11.5 Q184 2 169 10.5 Q154 19 171.5 15 Q189 11 190.5 22.5 Q192 34 192 50 Q192 67 190.5 114.5 Q189 162 183 169 Q177 176 166 175.5 Q155 175 129 171 Z" /><glyph glyph-name="uni767E" unicode="&#x767e;" d="M112 158 Q135 147 128 141 Q121 135 101 106 Q143 111 150.5 115 Q158 119 165 116.5 Q172 114 180.5 109 Q189 104 184.5 96.5 Q180 89 179.5 68.5 Q179 48 179.5 38 Q180 28 178 16 Q176 4 171.5 -4.5 Q167 -13 164 -4.5 Q161 4 157 25 Q146 29 128.5 26.5 Q111 24 89 22 Q86 9 83 6.5 Q80 4 77 15 Q74 26 75.5 44 Q77 62 75.5 77.5 Q74 93 70.5 101.5 Q67 110 72 109 Q77 108 82 106.5 Q87 105 94 106 Q99 114 104 127.5 Q109 141 109 157 Q66 152 53.5 150.5 Q41 149 32.5 156.5 Q24 164 32.5 163.5 Q41 163 66.5 164.5 Q92 166 122.5 169 Q153 172 175 174 L207 178 Q216 179 225 171 Q234 163 212 163 Q190 163 173 162 Q156 161 112 158 ZM87 97 Q87 78 89 68 Q113 70 125 73.5 Q137 77 143.5 71 Q150 65 124.5 62 Q99 59 89 62 L89 30 Q128 35 138 36.5 Q148 38 154.5 33 Q161 28 162 39.5 Q163 51 162.5 73 Q162 95 157.5 100.5 Q153 106 138 103.5 Q123 101 87 97 Z" /><glyph glyph-name="uni7688" unicode="&#x7688;" d="M46 119 Q67 124 71 127.5 Q75 131 84.5 127.5 Q94 124 97 121 Q100 118 97 110.5 Q94 103 94 74 Q94 46 91.5 34.5 Q89 23 85 19 Q81 15 74 37 Q63 35 43 33 Q40 12 35 18 Q30 24 29.5 29 Q29 34 30 41.5 Q31 49 31 76 Q31 103 26.5 113 Q22 123 27.5 121.5 Q33 120 40 119 Q53 138 61 153 Q69 168 67.5 172.5 Q66 177 70 177.5 Q74 178 88 174 Q102 170 90 162 Q78 154 46 119 ZM134 151 Q135 131 134 100 Q153 103 162 106.5 Q171 110 174.5 113.5 Q178 117 184 115 Q190 113 196.5 109.5 Q203 106 197.5 100.5 Q192 95 189 77 Q186 59 179 41 Q193 22 205.5 14.5 Q218 7 233.5 2 Q249 -3 234.5 -4.5 Q220 -6 208.5 -5.5 Q197 -5 192 0.5 Q187 6 183.5 11.5 Q180 17 171 30 Q161 19 150.5 13 Q140 7 127 5.5 Q114 4 123.5 8 Q133 12 143.5 20 Q154 28 163 41 Q156 53 148 64.5 Q140 76 135.5 80.5 Q131 85 138 85 Q146 85 152 74 Q158 63 169 51 Q173 60 175.5 76 Q178 92 177.5 97 Q177 102 168 99.5 Q159 97 151.5 94.5 Q144 92 134 96 Q129 60 121 43.5 Q113 27 104.5 16 Q96 5 84 -1.5 Q72 -8 83.5 3.5 Q95 15 104.5 35 Q114 55 117.5 71.5 Q121 88 121.5 116 Q122 144 116 153.5 Q110 163 117.5 162 Q125 161 134 157 Q152 167 162 177 Q172 187 173 194 Q174 201 190.5 189.5 Q207 178 195.5 176 Q184 174 171 168 Q158 162 134 151 ZM43 81 Q53 83 58.5 85.5 Q64 88 68.5 83 Q73 78 63.5 75.5 Q54 73 43 74 L43 41 Q57 44 64 45 Q71 46 73.5 45 Q76 44 77.5 49.5 Q79 55 79.5 80.5 Q80 106 77.5 111.5 Q75 117 71 117 Q68 117 43 112 L43 81 Z" /><glyph glyph-name="uni7834" unicode="&#x7834;" d="M169 140 Q193 147 199 151 Q205 155 214 150 Q223 145 229.5 137 Q236 129 224 128 Q212 127 200.5 120 Q189 113 195 122 Q201 131 202.5 136.5 Q204 142 194.5 139.5 Q185 137 169 133 Q167 114 167 97 Q173 99 176 101 Q179 103 183.5 101.5 Q188 100 193.5 96.5 Q199 93 195.5 89 Q192 85 190 72 Q188 59 183 40 Q199 25 213.5 17.5 Q228 10 241 6 Q254 2 237 1 Q220 0 209.5 0.5 Q199 1 193.5 8 Q188 15 176 30 Q165 19 154.5 14.5 Q144 10 133.5 9 Q123 8 133.5 12.5 Q144 17 152.5 24.5 Q161 32 167 40 Q147 68 141 72 Q135 76 141.5 76.5 Q148 77 153 71 Q158 65 172 50 Q176 62 177 76 Q178 90 175.5 91 Q173 92 161.5 87.5 Q150 83 146 81.5 Q142 80 136 83 Q134 84 133 85 Q133 78 132 72 Q129 50 122.5 35 Q116 20 105.5 10 Q95 0 81 -6.5 Q67 -13 82.5 -0.5 Q98 12 108.5 32.5 Q119 53 121 72.5 Q123 92 123.5 106 Q124 120 119 126.5 Q114 133 120.5 132 Q127 131 130 130.5 Q133 130 139.5 131.5 Q146 133 156 136 Q156 160 155.5 170.5 Q155 181 150 188.5 Q145 196 161 192 Q177 188 173.5 180 Q170 172 169 140 ZM77 134 Q89 125 86 121 Q83 117 78 108 Q73 99 63 83 Q68 84 74.5 85.5 Q81 87 85 89.5 Q89 92 93.5 91 Q98 90 104.5 86 Q111 82 105 76.5 Q99 71 92 54 Q103 45 92.5 44 Q82 43 59 39 Q55 21 52 29.5 Q49 38 49 43 Q49 48 48 61 Q39 49 30 42 Q21 35 12 30 Q3 25 11.5 34 Q20 43 29 53.5 Q38 64 46 76 Q44 82 42.5 86 Q41 90 51 87 Q59 100 64.5 113.5 Q70 127 69 133 Q57 131 49 134 Q41 137 54 140 Q67 143 81.5 149 Q96 155 102.5 156 Q109 157 114 153 Q119 149 107 144.5 Q95 140 77 134 ZM136 123 Q135 103 134 87 Q135 87 136 88 Q143 89 156 94 L156 128 Q145 125 136 123 ZM59 46 Q67 47 81 53 Q83 66 84 73 Q85 80 78 78 Q71 76 59 74 L59 46 Z" /><glyph glyph-name="uni793C" unicode="&#x793c;" d="M89 97 Q110 92 115.5 88 Q121 84 118.5 75 Q116 66 109 71.5 Q102 77 89 91 Q89 82 88 47 Q87 12 83.5 -1.5 Q80 -15 75 -1.5 Q70 12 72.5 22.5 Q75 33 77 49 Q79 65 79 85 Q70 70 57 56 Q44 42 27.5 31.5 Q11 21 31 41 Q51 61 70 92 Q89 123 85 125 Q50 110 43.5 105 Q37 100 25.5 108.5 Q14 117 26 117 Q39 117 56.5 122.5 Q74 128 79.5 132 Q85 136 88.5 140 Q92 144 106 139 Q116 133 107.5 128.5 Q99 124 89 97 ZM158 178 Q166 173 161 168 Q156 163 153.5 130 Q151 97 150.5 77 Q150 57 150.5 46 Q151 35 157.5 28 Q164 21 177 20 Q190 19 204.5 20.5 Q219 22 223.5 33.5 Q228 45 230.5 60.5 Q233 76 234 56.5 Q235 37 240.5 24 Q246 11 221.5 7.5 Q197 4 174 7.5 Q151 11 144.5 24 Q138 37 138.5 56 Q139 75 142 122 Q145 169 138.5 179.5 Q132 190 141.5 187 Q151 184 158 178 ZM84 167 Q62 183 75 183 Q89 183 97 178.5 Q105 174 104 164 Q103 154 84 167 Z" /><glyph glyph-name="uni7948" unicode="&#x7948;" d="M150 147 Q150 131 149 114 Q160 116 174 118 Q188 120 200.5 123 Q213 126 221.5 129 Q230 132 237.5 127.5 Q245 123 242.5 120.5 Q240 118 224 115.5 Q208 113 193 111 Q198 106 195.5 100.5 Q193 95 193 61 Q193 28 192.5 7 Q192 -14 188 -23 Q184 -32 182.5 -10 Q181 12 181.5 55.5 Q182 99 178 109 Q168 108 149 109 Q148 91 143.5 73 Q139 55 131 41.5 Q123 28 111.5 19 Q100 10 107 20.5 Q114 31 121 44.5 Q128 58 132 75 Q136 92 136.5 119 Q137 146 132 151.5 Q127 157 132.5 157.5 Q138 158 149 152 L168 171 Q177 180 176.5 187 Q176 194 193.5 184.5 Q211 175 196.5 171 Q182 167 150 147 ZM85 94 Q103 93 109 88.5 Q115 84 113 76.5 Q111 69 104 74.5 Q97 80 89 85 L89 47 Q89 21 86 8 Q83 -5 78 5 Q73 15 74.5 24 Q76 33 77.5 50 Q79 67 79 87 Q69 70 54 55.5 Q39 41 26 34 Q13 27 22 36.5 Q31 46 43 58.5 Q55 71 67.5 91.5 Q80 112 82 122 Q50 113 41 109.5 Q32 106 24.5 113 Q17 120 21 120.5 Q25 121 34 121 Q43 121 62 125 Q81 129 86.5 134.5 Q92 140 106 132 Q120 124 112 121 Q104 118 96.5 110 Q89 102 85 94 ZM82 191 Q74 200 90 197.5 Q106 195 110 187.5 Q114 180 110.5 174.5 Q107 169 98.5 175.5 Q90 182 82 191 Z" /><glyph glyph-name="uni79E6" unicode="&#x79e6;" d="M104 107 Q87 73 66 55.5 Q45 38 27 32 Q9 26 26 36 Q43 46 61.5 66.5 Q80 87 90 106 Q76 103 67.5 101.5 Q59 100 51 106.5 Q43 113 55 112.5 Q67 112 93 115 Q97 124 99 132 Q91 131 86.5 131.5 Q82 132 76.5 135 Q71 138 78.5 138.5 Q86 139 101 141 Q104 151 106 161 Q98 160 89 159 Q80 158 73 163 Q66 168 76.5 168.5 Q87 169 108 172 Q112 194 108.5 200 Q105 206 118 201 Q131 196 128.5 193 Q126 190 122 174 Q151 179 164.5 181 Q178 183 183 178.5 Q188 174 178.5 171.5 Q169 169 155 167 Q141 165 119 163 Q117 154 115 143 Q133 146 146 148.5 Q159 151 166.5 147 Q174 143 166 141 Q158 139 142.5 137 Q127 135 113 134 Q110 124 107 116 Q148 120 168 125 Q188 130 197 123 Q206 116 190 115 L144 112 Q160 97 175.5 85.5 Q191 74 206.5 67 Q222 60 238 54.5 Q254 49 236 47.5 Q218 46 208.5 46.5 Q199 47 191.5 54.5 Q184 62 173 73.5 Q162 85 138 111 Q125 110 104 107 ZM122 73 Q132 67 130.5 64 Q129 61 128 55 Q136 56 148.5 59.5 Q161 63 169 57 Q177 51 167 49.5 Q157 48 128 44 L128 4 Q128 -9 125.5 -19 Q123 -29 117 -19 Q111 -9 113.5 0 Q116 9 117 39 Q104 22 87.5 11 Q71 0 55.5 -3.5 Q40 -7 52 -0.5 Q64 6 78.5 17.5 Q93 29 104 42 Q94 40 87 39 Q80 38 71 43 Q62 48 75.5 48.5 Q89 49 117 54 Q117 60 115.5 65 Q114 70 113.5 71 Q113 72 108 71 Q103 70 96 70.5 Q89 71 99.5 74.5 Q110 78 118 82.5 Q126 87 130.5 92 Q135 97 145 88.5 Q155 80 149 80 Q144 80 138 78 Q132 76 122 73 ZM143 24 Q130 36 152.5 29.5 Q175 23 181.5 14 Q188 5 185 -1 Q182 -7 169.5 3 Q157 13 143 24 Z" /><glyph glyph-name="uni79F0" unicode="&#x79f0;" d="M76 156 Q94 149 92 144.5 Q90 140 89 123 Q97 125 103 127 Q109 129 113.5 126 Q118 123 110 120 Q102 117 89 113 L89 93 Q97 93 107 89 Q117 85 115.5 74 Q114 63 105.5 70.5 Q97 78 89 87 L89 31 Q89 15 86.5 2.5 Q84 -10 77.5 0.5 Q71 11 73 20.5 Q75 30 76.5 44 Q78 58 78 93 Q56 59 31.5 41 Q7 23 21.5 38.5 Q36 54 50 73 Q64 92 71 109 Q46 102 39 99.5 Q32 97 21.5 104 Q11 111 26 111 Q41 111 78 121 Q78 141 74 155 Q62 149 53 147.5 Q44 146 57.5 154.5 Q71 163 82.5 175 Q94 187 94 193 Q94 200 110 191 Q125 183 115.5 179 Q106 175 99.5 171 Q93 167 76 156 ZM135 127 Q143 128 165 134 Q187 140 194.5 145 Q202 150 209.5 147 Q217 144 226 137.5 Q235 131 222 126 Q209 121 199.5 111.5 Q190 102 194 114 Q198 126 198 130 Q198 135 187.5 132 Q177 129 167 126 Q178 118 176.5 113 Q175 108 175.5 79.5 Q176 51 177 35.5 Q178 20 176 10.5 Q174 1 167.5 -6.5 Q161 -14 157.5 -5 Q154 4 142 11 Q130 18 138.5 16.5 Q147 15 154 15 Q161 15 162 30.5 Q163 46 163 79 Q163 112 157 123 Q152 122 145 120.5 Q138 119 133 123 Q124 110 112.5 102.5 Q101 95 112 108 Q123 121 136.5 154 Q150 187 148 194.5 Q146 202 152.5 200 Q159 198 166.5 193.5 Q174 189 168.5 184.5 Q163 180 153.5 160.5 Q144 141 135 127 ZM201 76 Q226 67 231.5 56 Q237 45 234 37 Q231 29 218 44 Q205 59 193.5 71 Q182 83 201 76 ZM127 66 Q131 74 133.5 79.5 Q136 85 136.5 67 Q137 49 127.5 35 Q118 21 114.5 32 Q111 43 117.5 51 Q124 59 127 66 Z" /><glyph glyph-name="uni7A31" unicode="&#x7a31;" d="M164 115 Q177 119 180.5 121 Q184 123 192 120.5 Q200 118 204 114.5 Q208 111 205 105.5 Q202 100 203 89 Q204 78 205 61 Q218 63 225.5 64.5 Q233 66 239.5 63.5 Q246 61 248.5 57 Q251 53 240 53 Q230 53 206 50 Q208 29 209 15.5 Q210 2 203.5 -10.5 Q197 -23 193 -14.5 Q189 -6 176 2.5 Q163 11 173 9.5 Q183 8 187 8.5 Q191 9 193 18 Q195 27 193 49 Q160 46 128 41 Q127 28 126.5 19.5 Q126 11 123 0.5 Q120 -10 114.5 -0.5 Q109 9 111 17 Q113 25 116 39 L102 35 Q96 34 87 39.5 Q78 45 88 45 Q99 45 117 48 Q119 77 118.5 87 Q118 97 114 103.5 Q110 110 115.5 109 Q121 108 125 107.5 Q129 107 151 112 Q151 118 147.5 124.5 Q144 131 150.5 129.5 Q157 128 162 126 Q167 124 166 122 Q165 120 164 115 ZM70 164 Q81 156 79 150.5 Q77 145 76 134 Q83 137 90 139 Q97 141 101 137 Q105 133 94.5 128.5 Q84 124 76 121 L76 98 Q92 97 96 91 Q100 85 98 79 Q96 73 90.5 76.5 Q85 80 76 92 Q76 51 75 29.5 Q74 8 71.5 -1 Q69 -10 63 -1 Q57 8 58.5 16 Q60 24 61.5 33 Q63 42 63.5 49 Q64 56 65 96 Q37 59 20 49 Q3 39 11.5 48 Q20 57 28.5 66.5 Q37 76 44.5 88 Q52 100 60 117 Q44 113 32 113 Q21 113 17 115 Q13 117 26.5 119.5 Q40 122 66 130 Q66 148 63 161 Q54 157 44 156 Q34 155 45 160.5 Q56 166 70 176 Q84 186 84.5 190 Q85 194 91 191.5 Q97 189 103 183 Q109 177 103 176 Q97 175 70 164 ZM163 87 Q178 89 180.5 83.5 Q183 78 163 75 L162 55 Q177 57 192 60 Q190 97 187 104 Q184 111 179 110.5 Q174 110 164 108 L163 87 ZM128 49 Q139 51 152 54 L152 73 Q139 73 134.5 75.5 Q130 78 136.5 79.5 Q143 81 152 84 L152 104 Q136 101 128 100 L128 49 ZM179 196 Q189 192 193 187.5 Q197 183 187.5 180.5 Q178 178 161 171 Q144 164 131.5 161 Q119 158 131 164.5 Q143 171 156 180.5 Q169 190 169 195 Q169 201 179 196 ZM203 172 Q210 169 214.5 165 Q219 161 212.5 156.5 Q206 152 196 143.5 Q186 135 178.5 131 Q171 127 177.5 135 Q184 143 190.5 153.5 Q197 164 196.5 169.5 Q196 175 203 172 ZM117 143 Q112 153 122 150 Q132 147 135 141 Q138 135 135.5 128.5 Q133 122 127.5 128 Q122 134 117 143 ZM152 150 Q145 162 154 159.5 Q163 157 167.5 152.5 Q172 148 171 142.5 Q170 137 165 138 Q160 139 152 150 Z" /><glyph glyph-name="uni7ACB" unicode="&#x7acb;" d="M140 30 Q182 34 200 36.5 Q218 39 229 35 Q240 31 241.5 24.5 Q243 18 222.5 20.5 Q202 23 163.5 21 Q125 19 94 14 Q63 9 52 6.5 Q41 4 28 13 Q15 22 32 21.5 Q49 21 72.5 23 Q96 25 132 30 Q146 64 151 78.5 Q156 93 155 101.5 Q154 110 162 106.5 Q170 103 176.5 97.5 Q183 92 175.5 87 Q168 82 140 30 ZM125 128 Q152 134 165.5 137.5 Q179 141 189 137.5 Q199 134 194.5 130 Q190 126 170 123 Q150 120 130.5 116 Q111 112 100.5 110 Q90 108 77.5 113.5 Q65 119 82 120.5 Q99 122 125 128 ZM142 180 Q154 175 153 164 Q152 153 141.5 158 Q131 163 123.5 168.5 Q116 174 111 180 Q106 186 118 186 Q131 186 142 180 ZM88 77 Q80 94 93.5 86.5 Q107 79 111 72 Q115 65 111 55 Q107 45 101.5 53 Q96 61 88 77 Z" /><glyph glyph-name="uni7AE0" unicode="&#x7ae0;" d="M136 72 Q140 67 139.5 63.5 Q139 60 138 54 Q182 59 192 60.5 Q202 62 212.5 55 Q223 48 217.5 46.5 Q212 45 199 45.5 Q186 46 169 45.5 Q152 45 138 44 Q137 20 136.5 9 Q136 -2 135 -11 Q134 -20 131 -24.5 Q128 -29 126.5 -19.5 Q125 -10 125 3 L125 43 Q73 35 66 33 Q59 31 50.5 35 Q42 39 42.5 41 Q43 43 58.5 43.5 Q74 44 125 53 Q125 63 123 70 L102 67 Q99 58 95.5 64.5 Q92 71 86.5 86 Q81 101 75 108.5 Q69 116 78 115 Q87 114 92.5 115 Q98 116 127.5 120.5 Q157 125 163 128 Q169 131 175.5 129 Q182 127 189 122.5 Q196 118 190.5 114.5 Q185 111 181.5 104 Q178 97 173.5 87.5 Q169 78 164 72.5 Q159 67 156 74 L136 72 ZM140 143 Q146 165 144 173 Q117 170 106 168.5 Q95 167 84.5 170.5 Q74 174 89.5 176 Q105 178 130.5 183.5 Q156 189 165 190 Q174 191 179.5 186.5 Q185 182 178.5 180.5 Q172 179 150 175 Q167 167 162 163.5 Q157 160 147 144 Q172 147 186 149 Q200 151 208.5 152 Q217 153 226 151 Q235 149 239.5 144 Q244 139 236 139 L206 139 Q184 139 148 135.5 Q112 132 82 126 Q52 120 40 117.5 Q28 115 19.5 120 Q11 125 13.5 126 Q16 127 25 127.5 Q34 128 54.5 131 Q75 134 105 139 Q99 150 96.5 156 Q94 162 99 162 Q105 162 110.5 157.5 Q116 153 113 140 L140 143 ZM97 95 Q122 101 130.5 102.5 Q139 104 144 101 Q149 98 131 93.5 Q113 89 98 90 L101 73 Q110 75 127.5 78.5 Q145 82 157 83 Q163 102 163.5 110 Q164 118 157.5 118.5 Q151 119 94 109 L97 95 ZM129 208 Q137 206 141.5 201.5 Q146 197 144 190.5 Q142 184 133 189 Q124 194 116.5 201.5 Q109 209 115.5 209.5 Q122 210 129 208 Z" /><glyph glyph-name="uni7B2C" unicode="&#x7b2c;" d="M111 66 Q73 60 65.5 53.5 Q58 47 55.5 54 Q53 61 57 65.5 Q61 70 62 73 Q63 76 63.5 84 Q64 92 60.5 97.5 Q57 103 61 103 Q65 103 76 99 Q97 100 120 104 Q120 116 116 126 Q95 123 90 122 Q85 121 77.5 126.5 Q70 132 80 132 Q90 132 109.5 134 Q129 136 143.5 138.5 Q158 141 162 143.5 Q166 146 172 143.5 Q178 141 184.5 137 Q191 133 185 129.5 Q179 126 170 110 Q180 101 168.5 100.5 Q157 100 132 97 L132 77 Q181 84 187.5 86.5 Q194 89 201 86.5 Q208 84 214.5 79.5 Q221 75 216 70 Q211 65 209.5 60.5 Q208 56 204 41.5 Q200 27 190.5 19 Q181 11 178 20.5 Q175 30 164 38 Q153 46 163 43 Q173 40 180 40 Q188 40 191.5 49 Q195 58 195 67 Q195 76 183.5 75.5 Q172 75 132 69 Q132 40 131.5 18 Q131 -4 128 -17 Q125 -30 118.5 -19.5 Q112 -9 116 3 Q120 15 120 56 Q101 33 81 19.5 Q61 6 42.5 1 Q24 -4 42 5.5 Q60 15 78.5 30.5 Q97 46 111 66 ZM91 178 Q101 177 113 181 Q125 185 131 179 Q137 173 119.5 170 Q102 167 87 170 Q69 146 55 138.5 Q41 131 49 140 Q57 149 65 159.5 Q73 170 77 179.5 Q81 189 80 195 Q79 201 91 196 Q103 191 99.5 187.5 Q96 184 91 178 ZM165 182 Q187 185 195.5 187.5 Q204 190 211 185 Q218 180 198.5 176.5 Q179 173 163 178 Q148 159 135 151 Q122 143 131 153.5 Q140 164 148 178.5 Q156 193 155 200 Q154 207 160.5 205 Q167 203 172 199.5 Q177 196 174 193 Q171 190 165 182 ZM120 96 Q103 94 75 92 Q74 78 74 73 Q74 68 82.5 69.5 Q91 71 120 75 L120 96 ZM132 105 Q142 106 160 109 Q161 121 161.5 126.5 Q162 132 151.5 131 Q141 130 122 128 Q130 124 132.5 122 Q135 120 134 116.5 Q133 113 132 105 ZM177 149 Q168 155 163.5 161 Q159 167 167 166.5 Q175 166 182.5 163 Q190 160 188.5 151.5 Q187 143 177 149 ZM96 146 Q89 154 87 158.5 Q85 163 92.5 162 Q100 161 105.5 157 Q111 153 107.5 146 Q104 139 96 146 Z" /><glyph glyph-name="uni7F57" unicode="&#x7f57;" d="M94 71 Q106 67 116 61 Q126 55 122.5 44 Q119 33 111 42.5 Q103 52 91 68 Q77 56 61 48.5 Q45 41 63.5 56.5 Q82 72 100 95.5 Q118 119 113 126 Q105 126 82 122 Q80 113 76 117.5 Q72 122 65.5 142 Q59 162 54 168 Q49 174 54 174.5 Q59 175 66.5 174 Q74 173 105 176 Q136 179 160.5 182.5 Q185 186 191 189 Q197 192 204 188.5 Q211 185 218.5 178.5 Q226 172 219.5 168 Q213 164 205 151.5 Q197 139 190.5 131 Q184 123 182 134 L123 127 Q138 113 131.5 110 Q125 107 117 96 Q154 98 162.5 102 Q171 106 175.5 103.5 Q180 101 186.5 94 Q193 87 185.5 84 Q178 81 167 63 Q156 45 141 30 Q126 15 100 1 Q74 -13 50.5 -15.5 Q27 -18 52.5 -9 Q78 0 100.5 15 Q123 30 139.5 50 Q156 70 159.5 80.5 Q163 91 158 91 Q153 91 144.5 89.5 Q136 88 128.5 86.5 Q121 85 111 90 Q101 79 94 71 ZM149 138 Q167 141 184 142 Q192 156 194 165.5 Q196 175 191 176 Q186 177 159 174 Q166 168 162.5 164.5 Q159 161 149 138 ZM139 137 Q144 149 145.5 159 Q147 169 146 173 L110 170 Q114 161 116 153 Q118 145 117 134 L139 137 ZM108 133 Q107 139 105 148.5 Q103 158 103 169 L74 166 Q79 140 80 129 L108 133 Z" /><glyph glyph-name="uni8005" unicode="&#x8005;" d="M128 158 Q146 162 150 162 Q155 162 161 158 Q167 154 160 151.5 Q153 149 128 146 Q127 130 127 115 Q135 116 142 117 Q171 153 173 161 Q175 169 174.5 174.5 Q174 180 181 177 Q188 174 195.5 168.5 Q203 163 193 155.5 Q183 148 157 117 Q195 121 206.5 123.5 Q218 126 228.5 122 Q239 118 237 114 Q235 110 220.5 110.5 Q206 111 194.5 110.5 Q183 110 149 108 Q126 84 113 74 Q146 78 153 82.5 Q160 87 172 79.5 Q184 72 180.5 68 Q177 64 176.5 53.5 Q176 43 177 20.5 Q178 -2 170.5 -13 Q163 -24 160 -16 L155 -1 Q153 6 143 5.5 Q133 5 106 4 Q102 -16 96.5 -5.5 Q91 5 93 13.5 Q95 22 95 33 L95 56 Q87 49 67 35 Q47 21 31 17 Q15 13 29 21 Q43 29 63.5 44.5 Q84 60 93 68 Q86 78 101 74 Q123 96 132 107 Q97 102 73.5 99 Q50 96 39.5 94 Q29 92 20.5 99.5 Q12 107 21 105.5 Q30 104 114 114 L114 145 Q104 144 97 143.5 Q90 143 82.5 147 Q75 151 83 152 Q91 153 114 156 L114 178 Q114 188 109.5 197 Q105 206 112 205 Q119 204 127.5 200.5 Q136 197 132 190 Q128 183 128 158 ZM106 44 Q120 47 130 49 Q140 51 144 46 Q148 41 132 39.5 Q116 38 106 38 L106 10 Q136 15 144 13.5 Q152 12 156.5 7.5 Q161 3 162 19 Q163 35 161.5 51.5 Q160 68 156.5 71 Q153 74 145.5 72.5 Q138 71 106 68 L106 44 Z" /></font>
</defs>
</svg>
